<svg id="my-svg" width="100%" xmlns="http://www.w3.org/2000/svg" xmlns:xlink="http://www.w3.org/1999/xlink" class="flowchart" style="max-width: 508.052px; background-color: transparent;" viewBox="0 0 923.72998046875 336.4994812011719" role="graphics-document document" aria-roledescription="flowchart-v2"><style>#my-svg{font-family:"trebuchet ms",verdana,arial,sans-serif;font-size:16px;fill:#333;}@keyframes edge-animation-frame{from{stroke-dashoffset:0;}}@keyframes dash{to{stroke-dashoffset:0;}}#my-svg .edge-animation-slow{stroke-dasharray:9,5!important;stroke-dashoffset:900;animation:dash 50s linear infinite;stroke-linecap:round;}#my-svg .edge-animation-fast{stroke-dasharray:9,5!important;stroke-dashoffset:900;animation:dash 20s linear infinite;stroke-linecap:round;}#my-svg .error-icon{fill:#552222;}#my-svg .error-text{fill:#552222;stroke:#552222;}#my-svg .edge-thickness-normal{stroke-width:1px;}#my-svg .edge-thickness-thick{stroke-width:3.5px;}#my-svg .edge-pattern-solid{stroke-dasharray:0;}#my-svg .edge-thickness-invisible{stroke-width:0;fill:none;}#my-svg .edge-pattern-dashed{stroke-dasharray:3;}#my-svg .edge-pattern-dotted{stroke-dasharray:2;}#my-svg .marker{fill:#333333;stroke:#333333;}#my-svg .marker.cross{stroke:#333333;}#my-svg svg{font-family:"trebuchet ms",verdana,arial,sans-serif;font-size:16px;}#my-svg p{margin:0;}#my-svg .label{font-family:"trebuchet ms",verdana,arial,sans-serif;color:#333;}#my-svg .cluster-label text{fill:#333;}#my-svg .cluster-label span{color:#333;}#my-svg .cluster-label span p{background-color:transparent;}#my-svg .label text,#my-svg span{fill:#333;color:#333;}#my-svg .node rect,#my-svg .node circle,#my-svg .node ellipse,#my-svg .node polygon,#my-svg .node path{fill:#ECECFF;stroke:#9370DB;stroke-width:1px;}#my-svg .rough-node .label text,#my-svg .node .label text,#my-svg .image-shape .label,#my-svg .icon-shape .label{text-anchor:middle;}#my-svg .node .katex path{fill:#000;stroke:#000;stroke-width:1px;}#my-svg .rough-node .label,#my-svg .node .label,#my-svg .image-shape .label,#my-svg .icon-shape .label{text-align:center;}#my-svg .node.clickable{cursor:pointer;}#my-svg .root .anchor path{fill:#333333!important;stroke-width:0;stroke:#333333;}#my-svg .arrowheadPath{fill:#333333;}#my-svg .edgePath .path{stroke:#333333;stroke-width:1px;}#my-svg .flowchart-link{stroke:#333333;fill:none;}#my-svg .edgeLabel{background-color:rgba(232,232,232, 0.8);text-align:center;}#my-svg .edgeLabel p{background-color:rgba(232,232,232, 0.8);}#my-svg .edgeLabel rect{opacity:0.5;background-color:rgba(232,232,232, 0.8);fill:rgba(232,232,232, 0.8);}#my-svg .labelBkg{background-color:rgba(232, 232, 232, 0.5);}#my-svg .cluster rect{fill:#ffffde;stroke:#aaaa33;stroke-width:1px;}#my-svg .cluster text{fill:#333;}#my-svg .cluster span{color:#333;}#my-svg div.mermaidTooltip{position:absolute;text-align:center;max-width: 508.052px;padding:2px;font-family:"trebuchet ms",verdana,arial,sans-serif;font-size:12px;background:hsl(80, 100%, 96.2745098039%);border:1px solid #aaaa33;border-radius:2px;pointer-events:none;z-index:100;}#my-svg .flowchartTitleText{text-anchor:middle;font-size:18px;fill:#333;}#my-svg rect.text{fill:none;stroke-width:0;}#my-svg .icon-shape,#my-svg .image-shape{background-color:rgba(232,232,232, 0.8);text-align:center;}#my-svg .icon-shape p,#my-svg .image-shape p{background-color:rgba(232,232,232, 0.8);padding:2px;}#my-svg .icon-shape .label rect,#my-svg .image-shape .label rect{opacity:0.5;background-color:rgba(232,232,232, 0.8);fill:rgba(232,232,232, 0.8);}#my-svg .label-icon{display:inline-block;height:1em;overflow:visible;vertical-align:-0.125em;}#my-svg .node .label-icon path{fill:currentColor;stroke:revert;stroke-width:revert;}#my-svg .node .neo-node{stroke:#9370DB;}#my-svg [data-look="neo"].node rect,#my-svg [data-look="neo"].cluster rect,#my-svg [data-look="neo"].node polygon{stroke:#9370DB;filter:drop-shadow(1px 2px 2px rgba(185, 185, 185, 1));}#my-svg [data-look="neo"].node path{stroke:#9370DB;stroke-width:1px;}#my-svg [data-look="neo"].node .outer-path{filter:drop-shadow(1px 2px 2px rgba(185, 185, 185, 1));}#my-svg [data-look="neo"].node .neo-line path{stroke:#9370DB;filter:none;}#my-svg [data-look="neo"].node circle{stroke:#9370DB;filter:drop-shadow(1px 2px 2px rgba(185, 185, 185, 1));}#my-svg [data-look="neo"].node circle .state-start{fill:#000000;}#my-svg [data-look="neo"].icon-shape .icon{fill:#9370DB;filter:drop-shadow(1px 2px 2px rgba(185, 185, 185, 1));}#my-svg [data-look="neo"].icon-shape .icon-neo path{stroke:#9370DB;filter:drop-shadow(1px 2px 2px rgba(185, 185, 185, 1));}#my-svg :root{--mermaid-font-family:"trebuchet ms",verdana,arial,sans-serif;}</style><g><marker id="my-svg_flowchart-v2-pointEnd" class="marker flowchart-v2" viewBox="0 0 10 10" refX="5" refY="5" markerUnits="userSpaceOnUse" markerWidth="8" markerHeight="8" orient="auto"><path d="M 0 0 L 10 5 L 0 10 z" class="arrowMarkerPath" style="stroke-width: 1; stroke-dasharray: 1, 0;"/></marker><marker id="my-svg_flowchart-v2-pointStart" class="marker flowchart-v2" viewBox="0 0 10 10" refX="4.5" refY="5" markerUnits="userSpaceOnUse" markerWidth="8" markerHeight="8" orient="auto"><path d="M 0 5 L 10 10 L 10 0 z" class="arrowMarkerPath" style="stroke-width: 1; stroke-dasharray: 1, 0;"/></marker><marker id="my-svg_flowchart-v2-pointEnd-margin" class="marker flowchart-v2" viewBox="0 0 11.5 14" refX="11.5" refY="7" markerUnits="userSpaceOnUse" markerWidth="10.5" markerHeight="14" orient="auto"><path d="M 0 0 L 11.5 7 L 0 14 z" class="arrowMarkerPath" style="stroke-width: 0; stroke-dasharray: 1, 0;"/></marker><marker id="my-svg_flowchart-v2-pointStart-margin" class="marker flowchart-v2" viewBox="0 0 11.5 14" refX="1" refY="7" markerUnits="userSpaceOnUse" markerWidth="11.5" markerHeight="14" orient="auto"><polygon points="0,7 11.5,14 11.5,0" class="arrowMarkerPath" style="stroke-width: 0; stroke-dasharray: 1, 0;"/></marker><marker id="my-svg_flowchart-v2-circleEnd" class="marker flowchart-v2" viewBox="0 0 10 10" refX="11" refY="5" markerUnits="userSpaceOnUse" markerWidth="11" markerHeight="11" orient="auto"><circle cx="5" cy="5" r="5" class="arrowMarkerPath" style="stroke-width: 1; stroke-dasharray: 1, 0;"/></marker><marker id="my-svg_flowchart-v2-circleStart" class="marker flowchart-v2" viewBox="0 0 10 10" refX="-1" refY="5" markerUnits="userSpaceOnUse" markerWidth="11" markerHeight="11" orient="auto"><circle cx="5" cy="5" r="5" class="arrowMarkerPath" style="stroke-width: 1; stroke-dasharray: 1, 0;"/></marker><marker id="my-svg_flowchart-v2-circleEnd-margin" class="marker flowchart-v2" viewBox="0 0 10 10" refY="5" refX="12.25" markerUnits="userSpaceOnUse" markerWidth="14" markerHeight="14" orient="auto"><circle cx="5" cy="5" r="5" class="arrowMarkerPath" style="stroke-width: 0; stroke-dasharray: 1, 0;"/></marker><marker id="my-svg_flowchart-v2-circleStart-margin" class="marker flowchart-v2" viewBox="0 0 10 10" refX="-2" refY="5" markerUnits="userSpaceOnUse" markerWidth="14" markerHeight="14" orient="auto"><circle cx="5" cy="5" r="5" class="arrowMarkerPath" style="stroke-width: 0; stroke-dasharray: 1, 0;"/></marker><marker id="my-svg_flowchart-v2-crossEnd" class="marker cross flowchart-v2" viewBox="0 0 11 11" refX="12" refY="5.2" markerUnits="userSpaceOnUse" markerWidth="11" markerHeight="11" orient="auto"><path d="M 1,1 l 9,9 M 10,1 l -9,9" class="arrowMarkerPath" style="stroke-width: 2; stroke-dasharray: 1, 0;"/></marker><marker id="my-svg_flowchart-v2-crossStart" class="marker cross flowchart-v2" viewBox="0 0 11 11" refX="-1" refY="5.2" markerUnits="userSpaceOnUse" markerWidth="11" markerHeight="11" orient="auto"><path d="M 1,1 l 9,9 M 10,1 l -9,9" class="arrowMarkerPath" style="stroke-width: 2; stroke-dasharray: 1, 0;"/></marker><marker id="my-svg_flowchart-v2-crossEnd-margin" class="marker cross flowchart-v2" viewBox="0 0 15 15" refX="17.7" refY="7.5" markerUnits="userSpaceOnUse" markerWidth="12" markerHeight="12" orient="auto"><path d="M 1,1 L 14,14 M 1,14 L 14,1" class="arrowMarkerPath" style="stroke-width: 2.5;"/></marker><marker id="my-svg_flowchart-v2-crossStart-margin" class="marker cross flowchart-v2" viewBox="0 0 15 15" refX="-3.5" refY="7.5" markerUnits="userSpaceOnUse" markerWidth="12" markerHeight="12" orient="auto"><path d="M 1,1 L 14,14 M 1,14 L 14,1" class="arrowMarkerPath" style="stroke-width: 2.5; stroke-dasharray: 1, 0;"/></marker><g class="root"><g class="clusters"/><g class="edgePaths"><path d="M96.73,197.999L108.26,197.916C119.79,197.833,142.85,197.666,165.326,197.583C187.803,197.499,209.696,197.499,220.643,197.499L231.589,197.499" id="my-svg-L_P_Q_0" class="edge-thickness-normal edge-pattern-solid edge-thickness-normal edge-pattern-solid flowchart-link" style=";" data-edge="true" data-et="edge" data-id="L_P_Q_0" data-points="W3sieCI6OTYuNzI5OTYyNDMxODI3OTcsInkiOjE5Ny45OTk0ODg4MzA1NjYzOH0seyJ4IjoxNjUuOTA5NjUyNzA5OTYwOTQsInkiOjE5Ny40OTk0ODg4MzA1NjY0fSx7IngiOjIzNS41ODkzNDAyMDk5NjA5NCwieSI6MTk3LjQ5OTQ4ODgzMDU2NjR9XQ==" data-look="classic" marker-end="url(#my-svg_flowchart-v2-pointEnd)"/><path d="M343.917,165.077L356.213,153.147C368.509,141.218,393.1,117.359,417.175,105.429C441.251,93.499,464.811,93.499,476.591,93.499L488.371,93.499" id="my-svg-L_Q_W1_0" class="edge-thickness-normal edge-pattern-solid edge-thickness-normal edge-pattern-solid flowchart-link" style=";" data-edge="true" data-et="edge" data-id="L_Q_W1_0" data-points="W3sieCI6MzQzLjkxNzQ2NTIwOTk2MDk0LCJ5IjoxNjUuMDc2NTMzMDI2NDQzOTd9LHsieCI6NDE3LjY5MDkwMjcwOTk2MDk0LCJ5Ijo5My40OTk0ODg4MzA1NjY0fSx7IngiOjQ5Mi4zNzA1OTAyMDk5NjA5NCwieSI6OTMuNDk5NDg4ODMwNTY2NH1d" data-look="classic" marker-end="url(#my-svg_flowchart-v2-pointEnd)"/><path d="M343.917,197.499L356.213,197.499C368.509,197.499,393.1,197.499,417.175,197.499C441.251,197.499,464.811,197.499,476.591,197.499L488.371,197.499" id="my-svg-L_Q_W2_0" class="edge-thickness-normal edge-pattern-solid edge-thickness-normal edge-pattern-solid flowchart-link" style=";" data-edge="true" data-et="edge" data-id="L_Q_W2_0" data-points="W3sieCI6MzQzLjkxNzQ2NTIwOTk2MDk0LCJ5IjoxOTcuNDk5NDg4ODMwNTY2NH0seyJ4Ijo0MTcuNjkwOTAyNzA5OTYwOTQsInkiOjE5Ny40OTk0ODg4MzA1NjY0fSx7IngiOjQ5Mi4zNzA1OTAyMDk5NjA5NCwieSI6MTk3LjQ5OTQ4ODgzMDU2NjR9XQ==" data-look="classic" marker-end="url(#my-svg_flowchart-v2-pointEnd)"/><path d="M343.917,229.922L356.213,241.852C368.509,253.781,393.1,277.64,417.024,289.57C440.949,301.499,464.207,301.499,475.835,301.499L487.464,301.499" id="my-svg-L_Q_W3_0" class="edge-thickness-normal edge-pattern-solid edge-thickness-normal edge-pattern-solid flowchart-link" style=";" data-edge="true" data-et="edge" data-id="L_Q_W3_0" data-points="W3sieCI6MzQzLjkxNzQ2NTIwOTk2MDk0LCJ5IjoyMjkuOTIyNDQ0NjM0Njg4ODR9LHsieCI6NDE3LjY5MDkwMjcwOTk2MDk0LCJ5IjozMDEuNDk5NDg4ODMwNTY2NH0seyJ4Ijo0OTEuNDY0MzQwMjA5OTYwOTQsInkiOjMwMS40OTk0ODg4MzA1NjY0fV0=" data-look="classic" marker-end="url(#my-svg_flowchart-v2-pointEnd)"/><path d="M607.352,66.499L617.66,61.25C627.967,56,648.583,45.5,666.888,40.25C685.194,35,701.188,35,709.186,35L717.183,35" id="my-svg-L_W1_D_0" class="edge-thickness-normal edge-pattern-solid edge-thickness-normal edge-pattern-solid flowchart-link" style=";" data-edge="true" data-et="edge" data-id="L_W1_D_0" data-points="W3sieCI6NjA3LjM1MTgyMjY2MDU3LCJ5Ijo2Ni40OTk0ODg4MzA1NjY0fSx7IngiOjY2OS4xOTg3MTUyMDk5NjA5LCJ5IjozNX0seyJ4Ijo3MjEuMTgzMDkwMjA5OTYwOSwieSI6MzV9XQ==" data-look="classic" marker-end="url(#my-svg_flowchart-v2-pointEnd)"/><path d="M607.352,120.499L617.66,125.749C627.967,130.999,648.583,141.499,670.541,146.749C692.498,151.999,715.798,151.999,727.447,151.999L739.097,151.999" id="my-svg-L_W1_DLQ_0" class="edge-thickness-normal edge-pattern-solid edge-thickness-normal edge-pattern-solid flowchart-link" style=";" data-edge="true" data-et="edge" data-id="L_W1_DLQ_0" data-points="W3sieCI6NjA3LjM1MTgyMjY2MDU3LCJ5IjoxMjAuNDk5NDg4ODMwNTY2NH0seyJ4Ijo2NjkuMTk4NzE1MjA5OTYwOSwieSI6MTUxLjk5ODk3NzY2MTEzMjh9LHsieCI6NzQzLjA5NzE1MjcwOTk2MDksInkiOjE1MS45OTg5Nzc2NjExMzI4fV0=" data-look="classic" marker-end="url(#my-svg_flowchart-v2-pointEnd)"/></g><g class="edgeLabels"><g class="edgeLabel" transform="translate(165.90965270996094, 197.4994888305664)"><g class="label" data-id="L_P_Q_0" transform="translate(-44.6796875, -12)"><foreignObject width="89.359375" height="24"><div xmlns="http://www.w3.org/1999/xhtml" class="labelBkg" style="display: table-cell; white-space: nowrap; line-height: 1.5; max-width: 508.052px; text-align: center;"><span class="edgeLabel"><p>Enqueue job</p></span></div></foreignObject></g></g><g class="edgeLabel" transform="translate(417.69090270996094, 93.4994888305664)"><g class="label" data-id="L_Q_W1_0" transform="translate(-48.7734375, -12)"><foreignObject width="97.546875" height="24"><div xmlns="http://www.w3.org/1999/xhtml" class="labelBkg" style="display: table-cell; white-space: nowrap; line-height: 1.5; max-width: 508.052px; text-align: center;"><span class="edgeLabel"><p>Poll + process</p></span></div></foreignObject></g></g><g class="edgeLabel" transform="translate(417.69090270996094, 197.4994888305664)"><g class="label" data-id="L_Q_W2_0" transform="translate(-48.7734375, -12)"><foreignObject width="97.546875" height="24"><div xmlns="http://www.w3.org/1999/xhtml" class="labelBkg" style="display: table-cell; white-space: nowrap; line-height: 1.5; max-width: 508.052px; text-align: center;"><span class="edgeLabel"><p>Poll + process</p></span></div></foreignObject></g></g><g class="edgeLabel" transform="translate(417.69090270996094, 301.4994888305664)"><g class="label" data-id="L_Q_W3_0" transform="translate(-48.7734375, -12)"><foreignObject width="97.546875" height="24"><div xmlns="http://www.w3.org/1999/xhtml" class="labelBkg" style="display: table-cell; white-space: nowrap; line-height: 1.5; max-width: 508.052px; text-align: center;"><span class="edgeLabel"><p>Poll + process</p></span></div></foreignObject></g></g><g class="edgeLabel" transform="translate(669.1987152099609, 35)"><g class="label" data-id="L_W1_D_0" transform="translate(-26.984375, -12)"><foreignObject width="53.96875" height="24"><div xmlns="http://www.w3.org/1999/xhtml" class="labelBkg" style="display: table-cell; white-space: nowrap; line-height: 1.5; max-width: 508.052px; text-align: center;"><span class="edgeLabel"><p>Success</p></span></div></foreignObject></g></g><g class="edgeLabel" transform="translate(669.1987152099609, 151.9989776611328)"><g class="label" data-id="L_W1_DLQ_0" transform="translate(-24.890625, -12)"><foreignObject width="49.78125" height="24"><div xmlns="http://www.w3.org/1999/xhtml" class="labelBkg" style="display: table-cell; white-space: nowrap; line-height: 1.5; max-width: 508.052px; text-align: center;"><span class="edgeLabel"><p>Failure</p></span></div></foreignObject></g></g></g><g class="nodes"><g class="node default" id="my-svg-flowchart-P-0" data-look="classic" transform="translate(52.11498260498047, 197.4994888305664)"><g class="basic label-container outer-path"><path d="M-24.625 -19.5 C-10.959278649597774 -19.5, 2.706442700804452 -19.5, 24.625 -19.5 C24.625 -19.5, 24.625 -19.5, 24.625 -19.5 C25.119897653537826 -19.484129595510886, 25.614795307075653 -19.468259191021776, 25.8743692896239 -19.45993515863156 C26.178027113562493 -19.430641653558165, 26.481684937501083 -19.401348148484775, 27.118604652847864 -19.3399052695533 C27.55307176175765 -19.269663996727516, 27.987538870667436 -19.199422723901733, 28.35259325967676 -19.140403561325776 C28.682237178858934 -19.065164487900052, 29.01188109804111 -18.989925414474325, 29.57126438623539 -18.862249829261074 C29.930586140077853 -18.755605018839006, 30.289907893920315 -18.648960208416938, 30.769610251460602 -18.50658706670804 C31.144174382646394 -18.368744003998795, 31.518738513832186 -18.23090094128955, 31.942706595147794 -18.074876768247425 C32.17234983434512 -17.973220518379424, 32.40199307354245 -17.871564268511424, 33.08573291279238 -17.568892924097174 C33.31040464046992 -17.451681827676914, 33.53507636814745 -17.334470731256655, 34.19399226407678 -16.990714730406097 C34.478508186722976 -16.818239506096823, 34.76302410936918 -16.64576428178755, 35.2629305736057 -16.342718045390892 C35.502301904118625 -16.175742967442964, 35.74167323463155 -16.008767889495036, 36.28815534457871 -15.627565626425154 C36.60691472106156 -15.373363506223335, 36.92567409754441 -15.119161386021515, 37.265453708501866 -14.848196188198123 C37.603483696007586 -14.541206297328793, 37.941513683513314 -14.234216406459463, 38.19080973676799 -14.007812326905688 C38.366246748711575 -13.826659208427383, 38.54168376065516 -13.64550608994908, 39.06042094296865 -13.10986736009568 C39.35458749294826 -12.76432259193875, 39.64875404292788 -12.418777823781818, 39.87071390812658 -12.158051136245305 C40.14331638052854 -11.792788657822815, 40.415918852930496 -11.427526179400322, 40.618358964640635 -11.156274872382312 C40.824258937016545 -10.83995722292874, 41.030158909392455 -10.523639573475169, 41.30028387860425 -10.108655082055241 C41.4694841966232 -9.808222784022513, 41.63868451464215 -9.507790485989785, 41.913686474273504 -9.019496659696287 C42.117666933778814 -8.595926871050848, 42.32164739328413 -8.172357082405409, 42.45604614880834 -7.893275190886684 C42.63326535698518 -7.455540320389593, 42.81048456516202 -7.017805449892502, 42.925134229970325 -6.734618561215508 C43.00778752470049 -6.485680006502387, 43.09044081943065 -6.236741451789266, 43.31902313421488 -5.548287939305138 C43.40378397810214 -5.225058105980888, 43.48854482198941 -4.901828272656638, 43.63609428754556 -4.339158212148133 C43.69707758490341 -4.0260218690400125, 43.75806088226127 -3.712885525931892, 43.875044776581774 -3.1121979531509023 C43.934485634774106 -2.6511863949362953, 43.99392649296644 -2.190174836721688, 44.03489270250937 -1.872449005199798 C44.05384577358862 -1.5772396244967963, 44.07279884466788 -1.2820302437937947, 44.11498121591342 -0.6250057626472757 C44.11498121591342 -0.2902670829221064, 44.11498121591342 0.044471596803062896, 44.11498121591342 0.625005762647271 C44.09225318202271 0.9790132362338473, 44.069525148131994 1.3330207098204236, 44.03489270250937 1.8724490051997846 C43.974829186296496 2.3382897760639434, 43.91476567008363 2.8041305469281017, 43.875044776581774 3.1121979531508885 C43.79904922340433 3.502419057051218, 43.72305367022689 3.892640160951548, 43.63609428754556 4.339158212148129 C43.5280350424282 4.75123494695371, 43.41997579731084 5.163311681759291, 43.31902313421489 5.548287939305125 C43.17469464136432 5.982982364148569, 43.03036614851374 6.417676788992012, 42.925134229970325 6.734618561215495 C42.75867367687755 7.145779345650514, 42.59221312378477 7.556940130085532, 42.45604614880834 7.893275190886679 C42.25283043703984 8.315256964493656, 42.04961472527133 8.737238738100634, 41.913686474273504 9.019496659696284 C41.76429852021893 9.284750099290855, 41.61491056616436 9.550003538885427, 41.30028387860425 10.108655082055236 C41.090851066438766 10.430400122125903, 40.88141825427329 10.752145162196568, 40.61835896464064 11.156274872382301 C40.45621245947661 11.373536417451595, 40.294065954312586 11.590797962520888, 39.87071390812658 12.158051136245302 C39.626147813444305 12.445332387264125, 39.38158171876202 12.73261363828295, 39.06042094296866 13.10986736009567 C38.715025889732395 13.466516110023363, 38.36963083649613 13.823164859951055, 38.19080973676799 14.007812326905684 C37.9063963901684 14.266109003122644, 37.62198304356882 14.524405679339605, 37.26545370850189 14.848196188198111 C37.03541472554169 15.031646155514437, 36.805375742581504 15.215096122830762, 36.28815534457871 15.627565626425152 C36.06077812105007 15.786174134557369, 35.83340089752143 15.944782642689583, 35.26293057360571 16.34271804539089 C34.86900575113556 16.581517587731504, 34.47508092866541 16.82031713007212, 34.19399226407678 16.990714730406093 C33.953315803786055 17.116275485579138, 33.712639343495326 17.241836240752182, 33.08573291279239 17.56889292409717 C32.67922752428006 17.74884080103767, 32.27272213576772 17.92878867797817, 31.942706595147804 18.07487676824742 C31.578066349856712 18.209067749212018, 31.213426104565624 18.34325873017662, 30.769610251460616 18.506587066708033 C30.34243994056714 18.6333689727185, 29.915269629673663 18.760150878728968, 29.571264386235413 18.86224982926107 C29.184652899951377 18.950491378129676, 28.79804141366734 19.038732926998286, 28.352593259676766 19.140403561325773 C27.969753679325017 19.202298095711757, 27.586914098973264 19.264192630097742, 27.11860465284788 19.3399052695533 C26.75539639548469 19.374943533319286, 26.3921881381215 19.409981797085276, 25.8743692896239 19.45993515863156 C25.436761888127165 19.473968376246425, 24.99915448663043 19.48800159386129, 24.625000000000004 19.5 C24.625000000000004 19.5, 24.625 19.5, 24.625 19.5 C14.044519422044772 19.5, 3.4640388440895435 19.5, -24.624999999999996 19.5 C-25.12357120347906 19.4840117919144, -25.622142406958123 19.468023583828806, -25.874369289623893 19.45993515863156 C-26.19757547076369 19.428755847049306, -26.520781651903487 19.397576535467053, -27.11860465284787 19.3399052695533 C-27.54147724314595 19.27153850857982, -27.964349833444025 19.203171747606344, -28.35259325967676 19.140403561325773 C-28.705629159597006 19.059825420943522, -29.058665059517253 18.97924728056127, -29.571264386235388 18.862249829261074 C-29.92083723032243 18.758498444081344, -30.27041007440947 18.654747058901613, -30.76961025146059 18.506587066708043 C-31.013713885991326 18.41675467273147, -31.25781752052206 18.3269222787549, -31.942706595147797 18.074876768247425 C-32.31631590920459 17.909491007641012, -32.68992522326138 17.744105247034604, -33.08573291279238 17.568892924097174 C-33.36516339298148 17.423114221566287, -33.64459387317058 17.2773355190354, -34.19399226407678 16.990714730406097 C-34.58251132219921 16.755192194180864, -34.97103038032164 16.519669657955628, -35.262930573605686 16.3427180453909 C-35.516140520951424 16.166089747404467, -35.76935046829717 15.989461449418036, -36.28815534457871 15.627565626425156 C-36.49689059376463 15.461104819877647, -36.70562584295055 15.294644013330137, -37.265453708501866 14.848196188198125 C-37.46926327374389 14.663101733550915, -37.67307283898592 14.478007278903704, -38.190809736767974 14.007812326905697 C-38.438611644056444 13.751936512715401, -38.68641355134491 13.496060698525106, -39.060420942968655 13.109867360095677 C-39.24567204965948 12.892260869090043, -39.43092315635031 12.67465437808441, -39.870713908126575 12.158051136245307 C-40.06180878076201 11.902001416014865, -40.25290365339744 11.645951695784422, -40.618358964640635 11.156274872382316 C-40.82892937501996 10.832782175967285, -41.03949978539929 10.509289479552256, -41.30028387860425 10.108655082055249 C-41.45626836784897 9.831688826258938, -41.612252857093694 9.554722570462626, -41.913686474273504 9.019496659696289 C-42.116461620144015 8.598429730603096, -42.31923676601453 8.1773628015099, -42.45604614880834 7.893275190886686 C-42.636900629214715 7.446561127699437, -42.81775510962109 6.999847064512187, -42.925134229970325 6.73461856121551 C-43.014700020155885 6.464860671547321, -43.10426581034144 6.1951027818791315, -43.31902313421488 5.5482879393051325 C-43.43795779035758 5.094738548826994, -43.55689244650028 4.641189158348855, -43.63609428754556 4.339158212148136 C-43.712977845972105 3.9443773889736455, -43.78986140439865 3.5495965657991553, -43.875044776581774 3.112197953150904 C-43.926597963698 2.7123616142057285, -43.97815115081423 2.3125252752605525, -44.03489270250937 1.872449005199809 C-44.06080455427579 1.4688509982674445, -44.08671640604222 1.06525299133508, -44.11498121591342 0.6250057626472781 C-44.11498121591342 0.16946779095982234, -44.11498121591342 -0.28607018072763346, -44.11498121591342 -0.6250057626472687 C-44.088442186322624 -1.0383725704429556, -44.06190315673184 -1.4517393782386425, -44.03489270250937 -1.8724490051997822 C-43.98584248857109 -2.2528727784447424, -43.936792274632815 -2.6332965516897024, -43.875044776581774 -3.112197953150895 C-43.77978990063651 -3.6013116090046817, -43.68453502469124 -4.090425264858468, -43.63609428754556 -4.339158212148126 C-43.51150080908772 -4.814287144663031, -43.386907330629874 -5.289416077177935, -43.31902313421489 -5.548287939305123 C-43.20914649817528 -5.879218860591896, -43.09926986213567 -6.210149781878671, -42.92513422997033 -6.734618561215485 C-42.77627262848727 -7.102309594921917, -42.62741102700421 -7.470000628628349, -42.45604614880834 -7.893275190886676 C-42.280035886633314 -8.258764266309429, -42.10402562445829 -8.62425334173218, -41.913686474273504 -9.019496659696282 C-41.71650155587611 -9.369618449449007, -41.51931663747872 -9.719740239201734, -41.30028387860425 -10.108655082055243 C-41.127096025965926 -10.374718131157799, -40.9539081733276 -10.640781180260355, -40.61835896464064 -11.156274872382308 C-40.32956841572217 -11.54322789857282, -40.0407778668037 -11.93018092476333, -39.87071390812659 -12.158051136245302 C-39.65914015578273 -12.406577704635955, -39.44756640343886 -12.65510427302661, -39.06042094296866 -13.10986736009567 C-38.82262468257631 -13.355411522386834, -38.58482842218396 -13.600955684677999, -38.190809736767996 -14.007812326905677 C-37.99324439102123 -14.187235946620287, -37.79567904527447 -14.366659566334896, -37.26545370850189 -14.848196188198107 C-36.98864770372316 -15.068941610891997, -36.71184169894444 -15.289687033585887, -36.28815534457872 -15.627565626425149 C-35.91207683836918 -15.889901712180778, -35.53599833215965 -16.152237797936408, -35.262930573605715 -16.342718045390885 C-34.89866624197425 -16.5635372238807, -34.53440191034279 -16.784356402370516, -34.19399226407679 -16.99071473040609 C-33.85724811306585 -17.166393938293574, -33.52050396205491 -17.342073146181058, -33.08573291279239 -17.56889292409717 C-32.69506442288048 -17.74183027581217, -32.30439593296857 -17.914767627527166, -31.942706595147804 -18.07487676824742 C-31.49679010035529 -18.238978160337957, -31.050873605562778 -18.403079552428494, -30.76961025146062 -18.506587066708033 C-30.307494777143177 -18.643740513791826, -29.845379302825737 -18.780893960875616, -29.571264386235413 -18.862249829261067 C-29.266508556271827 -18.93180835873261, -28.96175272630824 -19.001366888204153, -28.352593259676766 -19.140403561325773 C-27.943998335944812 -19.2064620198938, -27.535403412212858 -19.27252047846182, -27.118604652847882 -19.3399052695533 C-26.793582188725182 -19.371259795770513, -26.468559724602482 -19.402614321987727, -25.874369289623903 -19.45993515863156 C-25.539135100447027 -19.470685466584698, -25.203900911270154 -19.481435774537832, -24.625000000000007 -19.5 C-24.625000000000004 -19.5, -24.625000000000004 -19.5, -24.625 -19.5" stroke="none" stroke-width="0" fill="#1f6feb" style="fill:#1f6feb !important"/><path d="M-24.625 -19.5 C-10.460651233929951 -19.5, 3.7036975321400973 -19.5, 24.625 -19.5 M-24.625 -19.5 C-12.140449927168346 -19.5, 0.34410014566330815 -19.5, 24.625 -19.5 M24.625 -19.5 C24.625 -19.5, 24.625 -19.5, 24.625 -19.5 M24.625 -19.5 C24.625 -19.5, 24.625 -19.5, 24.625 -19.5 M24.625 -19.5 C25.015258280578763 -19.4874851765335, 25.405516561157526 -19.474970353067, 25.8743692896239 -19.45993515863156 M24.625 -19.5 C25.106108399793072 -19.48457179003933, 25.587216799586145 -19.469143580078654, 25.8743692896239 -19.45993515863156 M25.8743692896239 -19.45993515863156 C26.267199982182696 -19.422039254168443, 26.66003067474149 -19.384143349705322, 27.118604652847864 -19.3399052695533 M25.8743692896239 -19.45993515863156 C26.25450713466042 -19.42326371790353, 26.63464497969694 -19.386592277175506, 27.118604652847864 -19.3399052695533 M27.118604652847864 -19.3399052695533 C27.501325775095673 -19.278029886554904, 27.884046897343485 -19.21615450355651, 28.35259325967676 -19.140403561325776 M27.118604652847864 -19.3399052695533 C27.474256929857248 -19.282406167531022, 27.82990920686663 -19.22490706550875, 28.35259325967676 -19.140403561325776 M28.35259325967676 -19.140403561325776 C28.68885721265442 -19.06365350838599, 29.025121165632076 -18.986903455446203, 29.57126438623539 -18.862249829261074 M28.35259325967676 -19.140403561325776 C28.814728792959333 -19.034924141570215, 29.276864326241906 -18.929444721814658, 29.57126438623539 -18.862249829261074 M29.57126438623539 -18.862249829261074 C30.002721899568435 -18.73419550407053, 30.434179412901475 -18.606141178879987, 30.769610251460602 -18.50658706670804 M29.57126438623539 -18.862249829261074 C29.966183399621563 -18.745039939060263, 30.361102413007735 -18.627830048859447, 30.769610251460602 -18.50658706670804 M30.769610251460602 -18.50658706670804 C31.107394071727 -18.382279498410597, 31.445177891993403 -18.257971930113158, 31.942706595147794 -18.074876768247425 M30.769610251460602 -18.50658706670804 C31.230936858147373 -18.336814610990903, 31.692263464834145 -18.167042155273766, 31.942706595147794 -18.074876768247425 M31.942706595147794 -18.074876768247425 C32.358383294901664 -17.890869023877578, 32.77405999465553 -17.70686127950773, 33.08573291279238 -17.568892924097174 M31.942706595147794 -18.074876768247425 C32.21277001107195 -17.955327705164397, 32.482833426996116 -17.835778642081365, 33.08573291279238 -17.568892924097174 M33.08573291279238 -17.568892924097174 C33.38802028963315 -17.411189793223652, 33.69030766647392 -17.253486662350127, 34.19399226407678 -16.990714730406097 M33.08573291279238 -17.568892924097174 C33.3967111380937 -17.406655783148533, 33.707689363395026 -17.244418642199896, 34.19399226407678 -16.990714730406097 M34.19399226407678 -16.990714730406097 C34.59913705691268 -16.7451135760939, 35.00428184974857 -16.4995124217817, 35.2629305736057 -16.342718045390892 M34.19399226407678 -16.990714730406097 C34.60867864014982 -16.739329412262975, 35.023365016222854 -16.487944094119857, 35.2629305736057 -16.342718045390892 M35.2629305736057 -16.342718045390892 C35.6661477686165 -16.06145118514241, 36.06936496362729 -15.780184324893927, 36.28815534457871 -15.627565626425154 M35.2629305736057 -16.342718045390892 C35.52179983459531 -16.16214205519423, 35.78066909558493 -15.98156606499757, 36.28815534457871 -15.627565626425154 M36.28815534457871 -15.627565626425154 C36.66150587964364 -15.329828509985862, 37.03485641470858 -15.032091393546569, 37.265453708501866 -14.848196188198123 M36.28815534457871 -15.627565626425154 C36.50148236485165 -15.457443004627914, 36.714809385124575 -15.287320382830673, 37.265453708501866 -14.848196188198123 M37.265453708501866 -14.848196188198123 C37.57530746978673 -14.566795200480486, 37.88516123107159 -14.285394212762847, 38.19080973676799 -14.007812326905688 M37.265453708501866 -14.848196188198123 C37.465114791065254 -14.666869275756813, 37.66477587362865 -14.485542363315504, 38.19080973676799 -14.007812326905688 M38.19080973676799 -14.007812326905688 C38.510872494108526 -13.677321252310506, 38.83093525144906 -13.346830177715324, 39.06042094296865 -13.10986736009568 M38.19080973676799 -14.007812326905688 C38.52479958172464 -13.662940390911702, 38.858789426681305 -13.318068454917718, 39.06042094296865 -13.10986736009568 M39.06042094296865 -13.10986736009568 C39.29503497350224 -12.8342763699144, 39.52964900403583 -12.558685379733118, 39.87071390812658 -12.158051136245305 M39.06042094296865 -13.10986736009568 C39.3701783977459 -12.746008628015824, 39.679935852523165 -12.382149895935967, 39.87071390812658 -12.158051136245305 M39.87071390812658 -12.158051136245305 C40.12248944750218 -11.820694850705495, 40.37426498687779 -11.483338565165685, 40.618358964640635 -11.156274872382312 M39.87071390812658 -12.158051136245305 C40.03457124755124 -11.938497229126977, 40.19842858697589 -11.71894332200865, 40.618358964640635 -11.156274872382312 M40.618358964640635 -11.156274872382312 C40.817309379618834 -10.850633609309083, 41.016259794597026 -10.544992346235855, 41.30028387860425 -10.108655082055241 M40.618358964640635 -11.156274872382312 C40.80622260051326 -10.867665879232286, 40.994086236385876 -10.57905688608226, 41.30028387860425 -10.108655082055241 M41.30028387860425 -10.108655082055241 C41.464958455304405 -9.816258696015035, 41.62963303200456 -9.52386230997483, 41.913686474273504 -9.019496659696287 M41.30028387860425 -10.108655082055241 C41.473702837151855 -9.800732160580209, 41.64712179569946 -9.492809239105178, 41.913686474273504 -9.019496659696287 M41.913686474273504 -9.019496659696287 C42.02954102007533 -8.77892221644863, 42.14539556587715 -8.53834777320097, 42.45604614880834 -7.893275190886684 M41.913686474273504 -9.019496659696287 C42.05929104992018 -8.717145642927122, 42.20489562556686 -8.414794626157954, 42.45604614880834 -7.893275190886684 M42.45604614880834 -7.893275190886684 C42.570017112852106 -7.611764706219902, 42.683988076895865 -7.33025422155312, 42.925134229970325 -6.734618561215508 M42.45604614880834 -7.893275190886684 C42.62210203255425 -7.4831139475621695, 42.78815791630017 -7.072952704237655, 42.925134229970325 -6.734618561215508 M42.925134229970325 -6.734618561215508 C43.03362492195276 -6.407861882608763, 43.14211561393518 -6.08110520400202, 43.31902313421488 -5.548287939305138 M42.925134229970325 -6.734618561215508 C43.04182183996159 -6.383174071567671, 43.15850944995286 -6.031729581919834, 43.31902313421488 -5.548287939305138 M43.31902313421488 -5.548287939305138 C43.44508434045172 -5.067561924651666, 43.57114554668857 -4.586835909998194, 43.63609428754556 -4.339158212148133 M43.31902313421488 -5.548287939305138 C43.39951466100885 -5.241338862391351, 43.480006187802815 -4.934389785477565, 43.63609428754556 -4.339158212148133 M43.63609428754556 -4.339158212148133 C43.709989858742595 -3.959720071885868, 43.78388542993962 -3.580281931623602, 43.875044776581774 -3.1121979531509023 M43.63609428754556 -4.339158212148133 C43.72667539106814 -3.874043389882677, 43.81725649459072 -3.408928567617221, 43.875044776581774 -3.1121979531509023 M43.875044776581774 -3.1121979531509023 C43.92469229261399 -2.7271416228159655, 43.974339808646214 -2.3420852924810283, 44.03489270250937 -1.872449005199798 M43.875044776581774 -3.1121979531509023 C43.911473025922646 -2.82966764483456, 43.947901275263526 -2.547137336518218, 44.03489270250937 -1.872449005199798 M44.03489270250937 -1.872449005199798 C44.05197941013379 -1.6063097418073202, 44.069066117758204 -1.3401704784148425, 44.11498121591342 -0.6250057626472757 M44.03489270250937 -1.872449005199798 C44.06179520250994 -1.4534208523836782, 44.08869770251052 -1.0343926995675587, 44.11498121591342 -0.6250057626472757 M44.11498121591342 -0.6250057626472757 C44.11498121591342 -0.33544183712654263, 44.11498121591342 -0.04587791160580956, 44.11498121591342 0.625005762647271 M44.11498121591342 -0.6250057626472757 C44.11498121591342 -0.28742627319707215, 44.11498121591342 0.050153216253131405, 44.11498121591342 0.625005762647271 M44.11498121591342 0.625005762647271 C44.087220932289476 1.0573945877877358, 44.05946064866554 1.4897834129282006, 44.03489270250937 1.8724490051997846 M44.11498121591342 0.625005762647271 C44.08987233309988 1.0160968799935004, 44.06476345028634 1.4071879973397299, 44.03489270250937 1.8724490051997846 M44.03489270250937 1.8724490051997846 C43.994910857198605 2.182540302121693, 43.954929011887835 2.4926315990436017, 43.875044776581774 3.1121979531508885 M44.03489270250937 1.8724490051997846 C44.0019840750936 2.127681820892908, 43.969075447677845 2.382914636586031, 43.875044776581774 3.1121979531508885 M43.875044776581774 3.1121979531508885 C43.78830163659753 3.5576056438008417, 43.701558496613295 4.003013334450795, 43.63609428754556 4.339158212148129 M43.875044776581774 3.1121979531508885 C43.81487825998816 3.421140299661304, 43.75471174339455 3.7300826461717196, 43.63609428754556 4.339158212148129 M43.63609428754556 4.339158212148129 C43.52971797832165 4.744817183002965, 43.42334166909774 5.150476153857802, 43.31902313421489 5.548287939305125 M43.63609428754556 4.339158212148129 C43.57043347481715 4.589551348657816, 43.50477266208874 4.839944485167503, 43.31902313421489 5.548287939305125 M43.31902313421489 5.548287939305125 C43.18127598976434 5.963160391363182, 43.04352884531378 6.378032843421238, 42.925134229970325 6.734618561215495 M43.31902313421489 5.548287939305125 C43.21516184362496 5.861101598512593, 43.111300553035036 6.1739152577200604, 42.925134229970325 6.734618561215495 M42.925134229970325 6.734618561215495 C42.77677415353174 7.1010708183657485, 42.628414077093154 7.467523075516002, 42.45604614880834 7.893275190886679 M42.925134229970325 6.734618561215495 C42.745961911695034 7.177177651416576, 42.56678959341975 7.6197367416176585, 42.45604614880834 7.893275190886679 M42.45604614880834 7.893275190886679 C42.345045387389845 8.123770647008001, 42.23404462597136 8.354266103129325, 41.913686474273504 9.019496659696284 M42.45604614880834 7.893275190886679 C42.32578126858532 8.163773001891723, 42.19551638836229 8.434270812896768, 41.913686474273504 9.019496659696284 M41.913686474273504 9.019496659696284 C41.692671536038304 9.411931062722195, 41.47165659780311 9.804365465748106, 41.30028387860425 10.108655082055236 M41.913686474273504 9.019496659696284 C41.72614428343141 9.352496810242524, 41.538602092589315 9.685496960788766, 41.30028387860425 10.108655082055236 M41.30028387860425 10.108655082055236 C41.092469248305946 10.427914160235245, 40.884654618007644 10.747173238415254, 40.61835896464064 11.156274872382301 M41.30028387860425 10.108655082055236 C41.100464165174174 10.41563182098987, 40.9006444517441 10.722608559924502, 40.61835896464064 11.156274872382301 M40.61835896464064 11.156274872382301 C40.35816445497748 11.50491181112347, 40.09796994531431 11.85354874986464, 39.87071390812658 12.158051136245302 M40.61835896464064 11.156274872382301 C40.40114634575733 11.447319993209272, 40.18393372687402 11.738365114036242, 39.87071390812658 12.158051136245302 M39.87071390812658 12.158051136245302 C39.65343896485647 12.413274647904881, 39.436164021586364 12.668498159564463, 39.06042094296866 13.10986736009567 M39.87071390812658 12.158051136245302 C39.55497705297195 12.528933612245943, 39.239240197817324 12.899816088246586, 39.06042094296866 13.10986736009567 M39.06042094296866 13.10986736009567 C38.853855755009256 13.323162875981087, 38.64729056704985 13.536458391866503, 38.19080973676799 14.007812326905684 M39.06042094296866 13.10986736009567 C38.83910177757852 13.338397569002398, 38.61778261218838 13.566927777909125, 38.19080973676799 14.007812326905684 M38.19080973676799 14.007812326905684 C37.86008490489585 14.308167868712422, 37.52936007302371 14.608523410519162, 37.26545370850189 14.848196188198111 M38.19080973676799 14.007812326905684 C37.96993267085472 14.2084070340812, 37.74905560494145 14.409001741256713, 37.26545370850189 14.848196188198111 M37.26545370850189 14.848196188198111 C36.9883861298415 15.06915020910185, 36.71131855118112 15.290104230005587, 36.28815534457871 15.627565626425152 M37.26545370850189 14.848196188198111 C36.91080422220908 15.131019715897438, 36.55615473591627 15.413843243596764, 36.28815534457871 15.627565626425152 M36.28815534457871 15.627565626425152 C35.940308410717996 15.870208589435316, 35.592461476857274 16.11285155244548, 35.26293057360571 16.34271804539089 M36.28815534457871 15.627565626425152 C36.06257102341362 15.784923483482048, 35.83698670224853 15.942281340538944, 35.26293057360571 16.34271804539089 M35.26293057360571 16.34271804539089 C34.93665426658518 16.54050866011914, 34.61037795956466 16.73829927484739, 34.19399226407678 16.990714730406093 M35.26293057360571 16.34271804539089 C35.047611293626154 16.473245858271035, 34.83229201364661 16.603773671151178, 34.19399226407678 16.990714730406093 M34.19399226407678 16.990714730406093 C33.90609620571119 17.140909919649197, 33.6182001473456 17.291105108892303, 33.08573291279239 17.56889292409717 M34.19399226407678 16.990714730406093 C33.833704982590746 17.17867637438234, 33.47341770110471 17.36663801835859, 33.08573291279239 17.56889292409717 M33.08573291279239 17.56889292409717 C32.81287432257456 17.689679327924107, 32.54001573235672 17.810465731751048, 31.942706595147804 18.07487676824742 M33.08573291279239 17.56889292409717 C32.752913394055675 17.71622225230167, 32.42009387531897 17.863551580506165, 31.942706595147804 18.07487676824742 M31.942706595147804 18.07487676824742 C31.601442561351966 18.200465087294436, 31.260178527556132 18.32605340634145, 30.769610251460616 18.506587066708033 M31.942706595147804 18.07487676824742 C31.542173963977376 18.222276479001195, 31.141641332806948 18.369676189754966, 30.769610251460616 18.506587066708033 M30.769610251460616 18.506587066708033 C30.514539576112252 18.58229070425813, 30.25946890076389 18.65799434180823, 29.571264386235413 18.86224982926107 M30.769610251460616 18.506587066708033 C30.500488746830968 18.586460916634508, 30.231367242201316 18.666334766560986, 29.571264386235413 18.86224982926107 M29.571264386235413 18.86224982926107 C29.150336282953155 18.958323922022668, 28.729408179670898 19.054398014784265, 28.352593259676766 19.140403561325773 M29.571264386235413 18.86224982926107 C29.14555388903341 18.959415472226816, 28.719843391831404 19.056581115192557, 28.352593259676766 19.140403561325773 M28.352593259676766 19.140403561325773 C28.034541205615668 19.191823750895853, 27.716489151554565 19.243243940465938, 27.11860465284788 19.3399052695533 M28.352593259676766 19.140403561325773 C28.05146971278721 19.189086881138895, 27.750346165897657 19.237770200952014, 27.11860465284788 19.3399052695533 M27.11860465284788 19.3399052695533 C26.64273757829234 19.385811593921783, 26.166870503736806 19.431717918290264, 25.8743692896239 19.45993515863156 M27.11860465284788 19.3399052695533 C26.73653977626335 19.376762608697167, 26.35447489967882 19.413619947841035, 25.8743692896239 19.45993515863156 M25.8743692896239 19.45993515863156 C25.420035978571175 19.47450474361088, 24.96570266751845 19.489074328590196, 24.625000000000004 19.5 M25.8743692896239 19.45993515863156 C25.45352776274317 19.473430727280284, 25.032686235862442 19.48692629592901, 24.625000000000004 19.5 M24.625000000000004 19.5 C24.625000000000004 19.5, 24.625 19.5, 24.625 19.5 M24.625000000000004 19.5 C24.625000000000004 19.5, 24.625000000000004 19.5, 24.625 19.5 M24.625 19.5 C10.784046425092816 19.5, -3.056907149814368 19.5, -24.624999999999996 19.5 M24.625 19.5 C11.48483701551691 19.5, -1.6553259689661814 19.5, -24.624999999999996 19.5 M-24.624999999999996 19.5 C-24.92556440512324 19.49036148454082, -25.226128810246482 19.480722969081643, -25.874369289623893 19.45993515863156 M-24.624999999999996 19.5 C-24.939978483159173 19.48989925311351, -25.25495696631835 19.47979850622702, -25.874369289623893 19.45993515863156 M-25.874369289623893 19.45993515863156 C-26.30554492628357 19.41834016352757, -26.736720562943248 19.376745168423586, -27.11860465284787 19.3399052695533 M-25.874369289623893 19.45993515863156 C-26.24574103622273 19.42410937287704, -26.61711278282156 19.388283587122523, -27.11860465284787 19.3399052695533 M-27.11860465284787 19.3399052695533 C-27.461928836848177 19.28439927800294, -27.80525302084848 19.228893286452582, -28.35259325967676 19.140403561325773 M-27.11860465284787 19.3399052695533 C-27.400954684694128 19.294257106061593, -27.683304716540388 19.24860894256989, -28.35259325967676 19.140403561325773 M-28.35259325967676 19.140403561325773 C-28.78838962679666 19.04093588436772, -29.224185993916567 18.94146820740967, -29.571264386235388 18.862249829261074 M-28.35259325967676 19.140403561325773 C-28.809172059232072 19.036192429782385, -29.265750858787385 18.931981298239, -29.571264386235388 18.862249829261074 M-29.571264386235388 18.862249829261074 C-30.02574465536651 18.72736247099857, -30.48022492449763 18.59247511273607, -30.76961025146059 18.506587066708043 M-29.571264386235388 18.862249829261074 C-29.848257013472082 18.780039871461195, -30.125249640708777 18.697829913661316, -30.76961025146059 18.506587066708043 M-30.76961025146059 18.506587066708043 C-31.193321492001445 18.350657413445237, -31.617032732542302 18.19472776018243, -31.942706595147797 18.074876768247425 M-30.76961025146059 18.506587066708043 C-31.17506672554908 18.357375336244917, -31.58052319963757 18.208163605781795, -31.942706595147797 18.074876768247425 M-31.942706595147797 18.074876768247425 C-32.23976421020093 17.943378173964465, -32.53682182525407 17.811879579681502, -33.08573291279238 17.568892924097174 M-31.942706595147797 18.074876768247425 C-32.22963371501441 17.947862643673076, -32.51656083488102 17.82084851909873, -33.08573291279238 17.568892924097174 M-33.08573291279238 17.568892924097174 C-33.48059715083349 17.362892504033745, -33.8754613888746 17.156892083970313, -34.19399226407678 16.990714730406097 M-33.08573291279238 17.568892924097174 C-33.449512606994475 17.379109290643957, -33.813292301196576 17.189325657190736, -34.19399226407678 16.990714730406097 M-34.19399226407678 16.990714730406097 C-34.51114009092281 16.79845785400453, -34.82828791776884 16.60620097760296, -35.262930573605686 16.3427180453909 M-34.19399226407678 16.990714730406097 C-34.4693386617697 16.82379812600961, -34.74468505946261 16.656881521613123, -35.262930573605686 16.3427180453909 M-35.262930573605686 16.3427180453909 C-35.537919522354436 16.150897658823503, -35.81290847110319 15.959077272256106, -36.28815534457871 15.627565626425156 M-35.262930573605686 16.3427180453909 C-35.48285472586597 16.189308477137235, -35.70277887812625 16.035898908883574, -36.28815534457871 15.627565626425156 M-36.28815534457871 15.627565626425156 C-36.61169034054226 15.369555076772047, -36.935225336505816 15.111544527118937, -37.265453708501866 14.848196188198125 M-36.28815534457871 15.627565626425156 C-36.65883171326507 15.331961086510221, -37.02950808195143 15.036356546595286, -37.265453708501866 14.848196188198125 M-37.265453708501866 14.848196188198125 C-37.52193173861358 14.615269627287478, -37.7784097687253 14.382343066376833, -38.190809736767974 14.007812326905697 M-37.265453708501866 14.848196188198125 C-37.58853407795052 14.554783144903002, -37.91161444739918 14.261370101607879, -38.190809736767974 14.007812326905697 M-38.190809736767974 14.007812326905697 C-38.453271919632634 13.736798574551976, -38.715734102497294 13.465784822198257, -39.060420942968655 13.109867360095677 M-38.190809736767974 14.007812326905697 C-38.463142027173134 13.726606878165509, -38.735474317578294 13.445401429425322, -39.060420942968655 13.109867360095677 M-39.060420942968655 13.109867360095677 C-39.34010815892113 12.781330841584465, -39.61979537487361 12.452794323073254, -39.870713908126575 12.158051136245307 M-39.060420942968655 13.109867360095677 C-39.24545751670176 12.892512871709453, -39.43049409043487 12.67515838332323, -39.870713908126575 12.158051136245307 M-39.870713908126575 12.158051136245307 C-40.16905488717798 11.758301403738757, -40.467395866229374 11.358551671232208, -40.618358964640635 11.156274872382316 M-39.870713908126575 12.158051136245307 C-40.03346842502827 11.93997491083855, -40.19622294192997 11.721898685431794, -40.618358964640635 11.156274872382316 M-40.618358964640635 11.156274872382316 C-40.804221206292915 10.870740558204334, -40.990083447945196 10.585206244026352, -41.30028387860425 10.108655082055249 M-40.618358964640635 11.156274872382316 C-40.88181126085705 10.751541398546877, -41.14526355707347 10.346807924711436, -41.30028387860425 10.108655082055249 M-41.30028387860425 10.108655082055249 C-41.532252272053164 9.69677171013976, -41.76422066550208 9.284888338224274, -41.913686474273504 9.019496659696289 M-41.30028387860425 10.108655082055249 C-41.48651404861025 9.777984557359996, -41.67274421861626 9.447314032664742, -41.913686474273504 9.019496659696289 M-41.913686474273504 9.019496659696289 C-42.02406726289593 8.790288590351286, -42.13444805151836 8.561080521006284, -42.45604614880834 7.893275190886686 M-41.913686474273504 9.019496659696289 C-42.06275377141604 8.70995522765061, -42.21182106855857 8.400413795604932, -42.45604614880834 7.893275190886686 M-42.45604614880834 7.893275190886686 C-42.55993469840311 7.636668464839133, -42.66382324799788 7.380061738791579, -42.925134229970325 6.73461856121551 M-42.45604614880834 7.893275190886686 C-42.61196543283763 7.508151544840061, -42.76788471686692 7.123027898793437, -42.925134229970325 6.73461856121551 M-42.925134229970325 6.73461856121551 C-43.058985353285756 6.331480304069754, -43.192836476601194 5.928342046923998, -43.31902313421488 5.5482879393051325 M-42.925134229970325 6.73461856121551 C-43.07214525769808 6.29184476872587, -43.21915628542583 5.849070976236231, -43.31902313421488 5.5482879393051325 M-43.31902313421488 5.5482879393051325 C-43.42416069985721 5.147352834601753, -43.529298265499534 4.746417729898374, -43.63609428754556 4.339158212148136 M-43.31902313421488 5.5482879393051325 C-43.40406443530545 5.223988601113763, -43.48910573639601 4.899689262922393, -43.63609428754556 4.339158212148136 M-43.63609428754556 4.339158212148136 C-43.686710676547904 4.079253752398704, -43.73732706555025 3.8193492926492714, -43.875044776581774 3.112197953150904 M-43.63609428754556 4.339158212148136 C-43.72592302525994 3.8779066292952518, -43.81575176297431 3.4166550464423677, -43.875044776581774 3.112197953150904 M-43.875044776581774 3.112197953150904 C-43.92747040767181 2.7055951110283836, -43.97989603876186 2.298992268905863, -44.03489270250937 1.872449005199809 M-43.875044776581774 3.112197953150904 C-43.934365930979524 2.652114793928864, -43.99368708537728 2.192031634706824, -44.03489270250937 1.872449005199809 M-44.03489270250937 1.872449005199809 C-44.05667154477418 1.5332259573602691, -44.078450387039 1.1940029095207292, -44.11498121591342 0.6250057626472781 M-44.03489270250937 1.872449005199809 C-44.062940549917705 1.4355811420000473, -44.090988397326036 0.9987132788002853, -44.11498121591342 0.6250057626472781 M-44.11498121591342 0.6250057626472781 C-44.11498121591342 0.1919434283133713, -44.11498121591342 -0.24111890602053554, -44.11498121591342 -0.6250057626472687 M-44.11498121591342 0.6250057626472781 C-44.11498121591342 0.31877673195937073, -44.11498121591342 0.012547701271463318, -44.11498121591342 -0.6250057626472687 M-44.11498121591342 -0.6250057626472687 C-44.0970503078547 -0.9042941292302009, -44.07911939979599 -1.1835824958131331, -44.03489270250937 -1.8724490051997822 M-44.11498121591342 -0.6250057626472687 C-44.09106933461854 -0.9974526151381282, -44.06715745332367 -1.3698994676289877, -44.03489270250937 -1.8724490051997822 M-44.03489270250937 -1.8724490051997822 C-43.99972948575289 -2.1451679706004856, -43.96456626899641 -2.417886936001189, -43.875044776581774 -3.112197953150895 M-44.03489270250937 -1.8724490051997822 C-43.9970203219572 -2.166179710014942, -43.959147941405035 -2.459910414830102, -43.875044776581774 -3.112197953150895 M-43.875044776581774 -3.112197953150895 C-43.79285003036878 -3.5342506030888305, -43.7106552841558 -3.956303253026766, -43.63609428754556 -4.339158212148126 M-43.875044776581774 -3.112197953150895 C-43.784274072783745 -3.5782863327587275, -43.69350336898572 -4.04437471236656, -43.63609428754556 -4.339158212148126 M-43.63609428754556 -4.339158212148126 C-43.56803536149713 -4.59869639409593, -43.4999764354487 -4.858234576043733, -43.31902313421489 -5.548287939305123 M-43.63609428754556 -4.339158212148126 C-43.54078507773911 -4.702613536412947, -43.445475867932664 -5.066068860677769, -43.31902313421489 -5.548287939305123 M-43.31902313421489 -5.548287939305123 C-43.220715627024944 -5.844374487787062, -43.122408119835 -6.140461036269001, -42.92513422997033 -6.734618561215485 M-43.31902313421489 -5.548287939305123 C-43.23236449707964 -5.8092899471777315, -43.14570585994438 -6.070291955050339, -42.92513422997033 -6.734618561215485 M-42.92513422997033 -6.734618561215485 C-42.77313418277814 -7.110061616501178, -42.62113413558596 -7.485504671786871, -42.45604614880834 -7.893275190886676 M-42.92513422997033 -6.734618561215485 C-42.76146171198525 -7.138892845031497, -42.59778919400017 -7.543167128847508, -42.45604614880834 -7.893275190886676 M-42.45604614880834 -7.893275190886676 C-42.320851563848784 -8.17400963925592, -42.18565697888922 -8.45474408762516, -41.913686474273504 -9.019496659696282 M-42.45604614880834 -7.893275190886676 C-42.262470576862604 -8.295239007885725, -42.068895004916875 -8.697202824884773, -41.913686474273504 -9.019496659696282 M-41.913686474273504 -9.019496659696282 C-41.71577294412059 -9.370912173400871, -41.51785941396768 -9.722327687105459, -41.30028387860425 -10.108655082055243 M-41.913686474273504 -9.019496659696282 C-41.770405694051995 -9.27390619373184, -41.62712491383049 -9.528315727767398, -41.30028387860425 -10.108655082055243 M-41.30028387860425 -10.108655082055243 C-41.05108041135004 -10.49149852825841, -40.801876944095845 -10.874341974461574, -40.61835896464064 -11.156274872382308 M-41.30028387860425 -10.108655082055243 C-41.10288546859401 -10.411912048726002, -40.90548705858377 -10.71516901539676, -40.61835896464064 -11.156274872382308 M-40.61835896464064 -11.156274872382308 C-40.387657972554116 -11.465393184485514, -40.156956980467584 -11.774511496588717, -39.87071390812659 -12.158051136245302 M-40.61835896464064 -11.156274872382308 C-40.463569752304956 -11.363678315324789, -40.30878053996927 -11.57108175826727, -39.87071390812659 -12.158051136245302 M-39.87071390812659 -12.158051136245302 C-39.59885416298978 -12.477393062140722, -39.326994417852966 -12.796734988036143, -39.06042094296866 -13.10986736009567 M-39.87071390812659 -12.158051136245302 C-39.60551475451332 -12.46956915233877, -39.34031560090006 -12.78108716843224, -39.06042094296866 -13.10986736009567 M-39.06042094296866 -13.10986736009567 C-38.76051078443821 -13.4195492218603, -38.460600625907766 -13.72923108362493, -38.190809736767996 -14.007812326905677 M-39.06042094296866 -13.10986736009567 C-38.86607880227822 -13.310541576145043, -38.67173666158777 -13.511215792194415, -38.190809736767996 -14.007812326905677 M-38.190809736767996 -14.007812326905677 C-38.00496004970475 -14.176596095383259, -37.8191103626415 -14.345379863860842, -37.26545370850189 -14.848196188198107 M-38.190809736767996 -14.007812326905677 C-37.99680558054588 -14.184001768517913, -37.80280142432376 -14.360191210130148, -37.26545370850189 -14.848196188198107 M-37.26545370850189 -14.848196188198107 C-36.97975546543523 -15.076032934294222, -36.69405722236858 -15.303869680390335, -36.28815534457872 -15.627565626425149 M-37.26545370850189 -14.848196188198107 C-37.01196515541944 -15.050346563667667, -36.75847660233699 -15.252496939137226, -36.28815534457872 -15.627565626425149 M-36.28815534457872 -15.627565626425149 C-36.01592520854251 -15.817461584671351, -35.74369507250631 -16.007357542917553, -35.262930573605715 -16.342718045390885 M-36.28815534457872 -15.627565626425149 C-35.908368064099676 -15.892488792560936, -35.52858078362063 -16.157411958696724, -35.262930573605715 -16.342718045390885 M-35.262930573605715 -16.342718045390885 C-34.9605688037837 -16.526011527131978, -34.658207033961695 -16.70930500887307, -34.19399226407679 -16.99071473040609 M-35.262930573605715 -16.342718045390885 C-35.02168133793207 -16.48896474979412, -34.78043210225843 -16.635211454197357, -34.19399226407679 -16.99071473040609 M-34.19399226407679 -16.99071473040609 C-33.92650789952978 -17.130261152058353, -33.65902353498278 -17.26980757371061, -33.08573291279239 -17.56889292409717 M-34.19399226407679 -16.99071473040609 C-33.874385757891154 -17.1574532399654, -33.55477925170551 -17.32419174952471, -33.08573291279239 -17.56889292409717 M-33.08573291279239 -17.56889292409717 C-32.71528666193766 -17.73287849045296, -32.34484041108294 -17.896864056808752, -31.942706595147804 -18.07487676824742 M-33.08573291279239 -17.56889292409717 C-32.75197374377011 -17.716638207609353, -32.418214574747836 -17.864383491121536, -31.942706595147804 -18.07487676824742 M-31.942706595147804 -18.07487676824742 C-31.4848995232904 -18.243354002613128, -31.027092451433 -18.41183123697883, -30.76961025146062 -18.506587066708033 M-31.942706595147804 -18.07487676824742 C-31.540210699977656 -18.222998978301305, -31.137714804807505 -18.37112118835519, -30.76961025146062 -18.506587066708033 M-30.76961025146062 -18.506587066708033 C-30.44480919427064 -18.60298631556648, -30.120008137080656 -18.699385564424926, -29.571264386235413 -18.862249829261067 M-30.76961025146062 -18.506587066708033 C-30.477122046720694 -18.593396030572926, -30.18463384198077 -18.68020499443782, -29.571264386235413 -18.862249829261067 M-29.571264386235413 -18.862249829261067 C-29.116448392282898 -18.966058611929, -28.661632398330383 -19.069867394596933, -28.352593259676766 -19.140403561325773 M-29.571264386235413 -18.862249829261067 C-29.292215429583017 -18.925940932652356, -29.013166472930624 -18.989632036043645, -28.352593259676766 -19.140403561325773 M-28.352593259676766 -19.140403561325773 C-27.941851317141747 -19.206809133243496, -27.53110937460673 -19.273214705161223, -27.118604652847882 -19.3399052695533 M-28.352593259676766 -19.140403561325773 C-27.894806234221946 -19.214415017409905, -27.437019208767126 -19.288426473494034, -27.118604652847882 -19.3399052695533 M-27.118604652847882 -19.3399052695533 C-26.758379494186617 -19.374655757375212, -26.398154335525355 -19.40940624519713, -25.874369289623903 -19.45993515863156 M-27.118604652847882 -19.3399052695533 C-26.815073554121252 -19.369186549597902, -26.51154245539462 -19.398467829642506, -25.874369289623903 -19.45993515863156 M-25.874369289623903 -19.45993515863156 C-25.525672516048974 -19.47111718546301, -25.176975742474045 -19.482299212294464, -24.625000000000007 -19.5 M-25.874369289623903 -19.45993515863156 C-25.396280648113404 -19.475266530821713, -24.9181920066029 -19.490597903011867, -24.625000000000007 -19.5 M-24.625000000000007 -19.5 C-24.625000000000004 -19.5, -24.625 -19.5, -24.625 -19.5 M-24.625000000000007 -19.5 C-24.625000000000004 -19.5, -24.625 -19.5, -24.625 -19.5" stroke="#9370DB" stroke-width="1.3" fill="none" stroke-dasharray="0 0" style="fill:#1f6feb !important"/></g><g class="label" style="color:#fff !important" transform="translate(-31.75, -12)"><rect/><foreignObject width="63.5" height="24"><div style="color: rgb(255, 255, 255) !important; display: table-cell; white-space: nowrap; line-height: 1.5; max-width: 508.052px; text-align: center;" xmlns="http://www.w3.org/1999/xhtml"><span style="color:#fff !important" class="nodeLabel"><p>Producer</p></span></div></foreignObject></g></g><g class="node default" id="my-svg-flowchart-Q-1" data-look="classic" transform="translate(289.75340270996094, 197.4994888305664)"><path d="M0,11.606843902765688 a54.1640625,11.606843902765688 0,0,0 108.328125,0 a54.1640625,11.606843902765688 0,0,0 -108.328125,0 l0,74.60684390276569 a54.1640625,11.606843902765688 0,0,0 108.328125,0 l0,-74.60684390276569" class="basic label-container outer-path" style="" transform="translate(-54.1640625, -48.910265854148534)"/><g class="label" style="" transform="translate(-46.6640625, -14)"><rect/><foreignObject width="93.328125" height="48"><div xmlns="http://www.w3.org/1999/xhtml" style="display: table-cell; white-space: nowrap; line-height: 1.5; max-width: 508.052px; text-align: center;"><span class="nodeLabel"><p>Queue<br />(Redis / SQS)</p></span></div></foreignObject></g></g><g class="node default" id="my-svg-flowchart-W1-3" data-look="classic" transform="translate(554.3393402099609, 93.4994888305664)"><rect class="basic label-container" style="" x="-61.96875" y="-27" width="123.9375" height="54"/><g class="label" style="" transform="translate(-31.96875, -12)"><rect/><foreignObject width="63.9375" height="24"><div xmlns="http://www.w3.org/1999/xhtml" style="display: table-cell; white-space: nowrap; line-height: 1.5; max-width: 508.052px; text-align: center;"><span class="nodeLabel"><p>Worker 1</p></span></div></foreignObject></g></g><g class="node default" id="my-svg-flowchart-W2-5" data-look="classic" transform="translate(554.3393402099609, 197.4994888305664)"><rect class="basic label-container" style="" x="-61.96875" y="-27" width="123.9375" height="54"/><g class="label" style="" transform="translate(-31.96875, -12)"><rect/><foreignObject width="63.9375" height="24"><div xmlns="http://www.w3.org/1999/xhtml" style="display: table-cell; white-space: nowrap; line-height: 1.5; max-width: 508.052px; text-align: center;"><span class="nodeLabel"><p>Worker 2</p></span></div></foreignObject></g></g><g class="node default" id="my-svg-flowchart-W3-7" data-look="classic" transform="translate(554.3393402099609, 301.4994888305664)"><rect class="basic label-container" style="" x="-62.875" y="-27" width="125.75" height="54"/><g class="label" style="" transform="translate(-32.875, -12)"><rect/><foreignObject width="65.75" height="24"><div xmlns="http://www.w3.org/1999/xhtml" style="display: table-cell; white-space: nowrap; line-height: 1.5; max-width: 508.052px; text-align: center;"><span class="nodeLabel"><p>Worker N</p></span></div></foreignObject></g></g><g class="node default" id="my-svg-flowchart-D-9" data-look="classic" transform="translate(818.4565277099609, 35)"><rect class="basic label-container" style="fill:#3fb950 !important" x="-97.2734375" y="-27" width="194.546875" height="54"/><g class="label" style="color:#fff !important" transform="translate(-67.2734375, -12)"><rect/><foreignObject width="134.546875" height="24"><div style="color: rgb(255, 255, 255) !important; display: table-cell; white-space: nowrap; line-height: 1.5; max-width: 508.052px; text-align: center;" xmlns="http://www.w3.org/1999/xhtml"><span style="color:#fff !important" class="nodeLabel"><p>Delete from queue</p></span></div></foreignObject></g></g><g class="node default" id="my-svg-flowchart-DLQ-11" data-look="classic" transform="translate(818.4565277099609, 151.9989776611328)"><path d="M0,13.66598662586422 a75.359375,13.66598662586422 0,0,0 150.71875,0 a75.359375,13.66598662586422 0,0,0 -150.71875,0 l0,52.66598662586422 a75.359375,13.66598662586422 0,0,0 150.71875,0 l0,-52.66598662586422" class="basic label-container outer-path" style="fill:#f85149 !important" transform="translate(-75.359375, -39.99897993879633)"/><g class="label" style="color:#fff !important" transform="translate(-67.859375, -2)"><rect/><foreignObject width="135.71875" height="24"><div style="color: rgb(255, 255, 255) !important; display: table-cell; white-space: nowrap; line-height: 1.5; max-width: 508.052px; text-align: center;" xmlns="http://www.w3.org/1999/xhtml"><span style="color:#fff !important" class="nodeLabel"><p>Dead Letter Queue</p></span></div></foreignObject></g></g></g></g></g><defs><filter id="my-svg-drop-shadow" height="130%" width="130%"><feDropShadow dx="4" dy="4" stdDeviation="0" flood-opacity="0.06" flood-color="#000000"/></filter></defs><defs><filter id="my-svg-drop-shadow-small" height="150%" width="150%"><feDropShadow dx="2" dy="2" stdDeviation="0" flood-opacity="0.06" flood-color="#000000"/></filter></defs></svg>