<svg id="my-svg" width="100%" xmlns="http://www.w3.org/2000/svg" xmlns:xlink="http://www.w3.org/1999/xlink" class="flowchart" style="max-width: 703px; background-color: transparent;" viewBox="0 0 1171.87890625 723.684814453125" role="graphics-document document" aria-roledescription="flowchart-v2"><style>#my-svg{font-family:"trebuchet ms",verdana,arial,sans-serif;font-size:16px;fill:#333;}@keyframes edge-animation-frame{from{stroke-dashoffset:0;}}@keyframes dash{to{stroke-dashoffset:0;}}#my-svg .edge-animation-slow{stroke-dasharray:9,5!important;stroke-dashoffset:900;animation:dash 50s linear infinite;stroke-linecap:round;}#my-svg .edge-animation-fast{stroke-dasharray:9,5!important;stroke-dashoffset:900;animation:dash 20s linear infinite;stroke-linecap:round;}#my-svg .error-icon{fill:#552222;}#my-svg .error-text{fill:#552222;stroke:#552222;}#my-svg .edge-thickness-normal{stroke-width:1px;}#my-svg .edge-thickness-thick{stroke-width:3.5px;}#my-svg .edge-pattern-solid{stroke-dasharray:0;}#my-svg .edge-thickness-invisible{stroke-width:0;fill:none;}#my-svg .edge-pattern-dashed{stroke-dasharray:3;}#my-svg .edge-pattern-dotted{stroke-dasharray:2;}#my-svg .marker{fill:#333333;stroke:#333333;}#my-svg .marker.cross{stroke:#333333;}#my-svg svg{font-family:"trebuchet ms",verdana,arial,sans-serif;font-size:16px;}#my-svg p{margin:0;}#my-svg .label{font-family:"trebuchet ms",verdana,arial,sans-serif;color:#333;}#my-svg .cluster-label text{fill:#333;}#my-svg .cluster-label span{color:#333;}#my-svg .cluster-label span p{background-color:transparent;}#my-svg .label text,#my-svg span{fill:#333;color:#333;}#my-svg .node rect,#my-svg .node circle,#my-svg .node ellipse,#my-svg .node polygon,#my-svg .node path{fill:#ECECFF;stroke:#9370DB;stroke-width:1px;}#my-svg .rough-node .label text,#my-svg .node .label text,#my-svg .image-shape .label,#my-svg .icon-shape .label{text-anchor:middle;}#my-svg .node .katex path{fill:#000;stroke:#000;stroke-width:1px;}#my-svg .rough-node .label,#my-svg .node .label,#my-svg .image-shape .label,#my-svg .icon-shape .label{text-align:center;}#my-svg .node.clickable{cursor:pointer;}#my-svg .root .anchor path{fill:#333333!important;stroke-width:0;stroke:#333333;}#my-svg .arrowheadPath{fill:#333333;}#my-svg .edgePath .path{stroke:#333333;stroke-width:1px;}#my-svg .flowchart-link{stroke:#333333;fill:none;}#my-svg .edgeLabel{background-color:rgba(232,232,232, 0.8);text-align:center;}#my-svg .edgeLabel p{background-color:rgba(232,232,232, 0.8);}#my-svg .edgeLabel rect{opacity:0.5;background-color:rgba(232,232,232, 0.8);fill:rgba(232,232,232, 0.8);}#my-svg .labelBkg{background-color:rgba(232, 232, 232, 0.5);}#my-svg .cluster rect{fill:#ffffde;stroke:#aaaa33;stroke-width:1px;}#my-svg .cluster text{fill:#333;}#my-svg .cluster span{color:#333;}#my-svg div.mermaidTooltip{position:absolute;text-align:center;max-width: 703px;padding:2px;font-family:"trebuchet ms",verdana,arial,sans-serif;font-size:12px;background:hsl(80, 100%, 96.2745098039%);border:1px solid #aaaa33;border-radius:2px;pointer-events:none;z-index:100;}#my-svg .flowchartTitleText{text-anchor:middle;font-size:18px;fill:#333;}#my-svg rect.text{fill:none;stroke-width:0;}#my-svg .icon-shape,#my-svg .image-shape{background-color:rgba(232,232,232, 0.8);text-align:center;}#my-svg .icon-shape p,#my-svg .image-shape p{background-color:rgba(232,232,232, 0.8);padding:2px;}#my-svg .icon-shape .label rect,#my-svg .image-shape .label rect{opacity:0.5;background-color:rgba(232,232,232, 0.8);fill:rgba(232,232,232, 0.8);}#my-svg .label-icon{display:inline-block;height:1em;overflow:visible;vertical-align:-0.125em;}#my-svg .node .label-icon path{fill:currentColor;stroke:revert;stroke-width:revert;}#my-svg .node .neo-node{stroke:#9370DB;}#my-svg [data-look="neo"].node rect,#my-svg [data-look="neo"].cluster rect,#my-svg [data-look="neo"].node polygon{stroke:#9370DB;filter:drop-shadow(1px 2px 2px rgba(185, 185, 185, 1));}#my-svg [data-look="neo"].node path{stroke:#9370DB;stroke-width:1px;}#my-svg [data-look="neo"].node .outer-path{filter:drop-shadow(1px 2px 2px rgba(185, 185, 185, 1));}#my-svg [data-look="neo"].node .neo-line path{stroke:#9370DB;filter:none;}#my-svg [data-look="neo"].node circle{stroke:#9370DB;filter:drop-shadow(1px 2px 2px rgba(185, 185, 185, 1));}#my-svg [data-look="neo"].node circle .state-start{fill:#000000;}#my-svg [data-look="neo"].icon-shape .icon{fill:#9370DB;filter:drop-shadow(1px 2px 2px rgba(185, 185, 185, 1));}#my-svg [data-look="neo"].icon-shape .icon-neo path{stroke:#9370DB;filter:drop-shadow(1px 2px 2px rgba(185, 185, 185, 1));}#my-svg :root{--mermaid-font-family:"trebuchet ms",verdana,arial,sans-serif;}</style><g><marker id="my-svg_flowchart-v2-pointEnd" class="marker flowchart-v2" viewBox="0 0 10 10" refX="5" refY="5" markerUnits="userSpaceOnUse" markerWidth="8" markerHeight="8" orient="auto"><path d="M 0 0 L 10 5 L 0 10 z" class="arrowMarkerPath" style="stroke-width: 1; stroke-dasharray: 1, 0;"/></marker><marker id="my-svg_flowchart-v2-pointStart" class="marker flowchart-v2" viewBox="0 0 10 10" refX="4.5" refY="5" markerUnits="userSpaceOnUse" markerWidth="8" markerHeight="8" orient="auto"><path d="M 0 5 L 10 10 L 10 0 z" class="arrowMarkerPath" style="stroke-width: 1; stroke-dasharray: 1, 0;"/></marker><marker id="my-svg_flowchart-v2-pointEnd-margin" class="marker flowchart-v2" viewBox="0 0 11.5 14" refX="11.5" refY="7" markerUnits="userSpaceOnUse" markerWidth="10.5" markerHeight="14" orient="auto"><path d="M 0 0 L 11.5 7 L 0 14 z" class="arrowMarkerPath" style="stroke-width: 0; stroke-dasharray: 1, 0;"/></marker><marker id="my-svg_flowchart-v2-pointStart-margin" class="marker flowchart-v2" viewBox="0 0 11.5 14" refX="1" refY="7" markerUnits="userSpaceOnUse" markerWidth="11.5" markerHeight="14" orient="auto"><polygon points="0,7 11.5,14 11.5,0" class="arrowMarkerPath" style="stroke-width: 0; stroke-dasharray: 1, 0;"/></marker><marker id="my-svg_flowchart-v2-circleEnd" class="marker flowchart-v2" viewBox="0 0 10 10" refX="11" refY="5" markerUnits="userSpaceOnUse" markerWidth="11" markerHeight="11" orient="auto"><circle cx="5" cy="5" r="5" class="arrowMarkerPath" style="stroke-width: 1; stroke-dasharray: 1, 0;"/></marker><marker id="my-svg_flowchart-v2-circleStart" class="marker flowchart-v2" viewBox="0 0 10 10" refX="-1" refY="5" markerUnits="userSpaceOnUse" markerWidth="11" markerHeight="11" orient="auto"><circle cx="5" cy="5" r="5" class="arrowMarkerPath" style="stroke-width: 1; stroke-dasharray: 1, 0;"/></marker><marker id="my-svg_flowchart-v2-circleEnd-margin" class="marker flowchart-v2" viewBox="0 0 10 10" refY="5" refX="12.25" markerUnits="userSpaceOnUse" markerWidth="14" markerHeight="14" orient="auto"><circle cx="5" cy="5" r="5" class="arrowMarkerPath" style="stroke-width: 0; stroke-dasharray: 1, 0;"/></marker><marker id="my-svg_flowchart-v2-circleStart-margin" class="marker flowchart-v2" viewBox="0 0 10 10" refX="-2" refY="5" markerUnits="userSpaceOnUse" markerWidth="14" markerHeight="14" orient="auto"><circle cx="5" cy="5" r="5" class="arrowMarkerPath" style="stroke-width: 0; stroke-dasharray: 1, 0;"/></marker><marker id="my-svg_flowchart-v2-crossEnd" class="marker cross flowchart-v2" viewBox="0 0 11 11" refX="12" refY="5.2" markerUnits="userSpaceOnUse" markerWidth="11" markerHeight="11" orient="auto"><path d="M 1,1 l 9,9 M 10,1 l -9,9" class="arrowMarkerPath" style="stroke-width: 2; stroke-dasharray: 1, 0;"/></marker><marker id="my-svg_flowchart-v2-crossStart" class="marker cross flowchart-v2" viewBox="0 0 11 11" refX="-1" refY="5.2" markerUnits="userSpaceOnUse" markerWidth="11" markerHeight="11" orient="auto"><path d="M 1,1 l 9,9 M 10,1 l -9,9" class="arrowMarkerPath" style="stroke-width: 2; stroke-dasharray: 1, 0;"/></marker><marker id="my-svg_flowchart-v2-crossEnd-margin" class="marker cross flowchart-v2" viewBox="0 0 15 15" refX="17.7" refY="7.5" markerUnits="userSpaceOnUse" markerWidth="12" markerHeight="12" orient="auto"><path d="M 1,1 L 14,14 M 1,14 L 14,1" class="arrowMarkerPath" style="stroke-width: 2.5;"/></marker><marker id="my-svg_flowchart-v2-crossStart-margin" class="marker cross flowchart-v2" viewBox="0 0 15 15" refX="-3.5" refY="7.5" markerUnits="userSpaceOnUse" markerWidth="12" markerHeight="12" orient="auto"><path d="M 1,1 L 14,14 M 1,14 L 14,1" class="arrowMarkerPath" style="stroke-width: 2.5; stroke-dasharray: 1, 0;"/></marker><g class="root"><g class="clusters"/><g class="edgePaths"><path d="M656.555,32.384L590.681,40.987C524.807,49.59,393.058,66.795,327.183,80.897C261.309,95,261.309,106,261.309,111.5L261.309,117" id="my-svg-L_Client_TS_0" class="edge-thickness-normal edge-pattern-solid edge-thickness-normal edge-pattern-solid flowchart-link" style=";" data-edge="true" data-et="edge" data-id="L_Client_TS_0" data-points="W3sieCI6NjU2LjU1NTQ3OTE2NjM1OTMsInkiOjMyLjM4NDQ4OTgwMjkxMzM4fSx7IngiOjI2MS4zMDg1OTM3NSwieSI6ODR9LHsieCI6MjYxLjMwODU5Mzc1LCJ5IjoxMjF9XQ==" data-look="classic" marker-end="url(#my-svg_flowchart-v2-pointEnd)"/><path d="M239.931,175L235.049,181.167C230.167,187.333,220.402,199.667,215.519,220.118C210.637,240.568,210.637,269.137,210.637,297.705C210.637,326.273,210.637,354.842,229.538,378.874C248.439,402.907,286.241,422.404,305.142,432.152L324.043,441.9" id="my-svg-L_TS_DB_0" class="edge-thickness-normal edge-pattern-solid edge-thickness-normal edge-pattern-solid flowchart-link" style=";" data-edge="true" data-et="edge" data-id="L_TS_DB_0" data-points="W3sieCI6MjM5LjkzMTM5NjQ4NDM3NSwieSI6MTc1fSx7IngiOjIxMC42MzY3MTg3NSwieSI6MjEyfSx7IngiOjIxMC42MzY3MTg3NSwieSI6Mjk3LjcwNTA0NzYwNzQyMTl9LHsieCI6MjEwLjYzNjcxODc1LCJ5IjozODMuNDEwMDk1MjE0ODQzNzV9LHsieCI6MzI3LjU5NzY1NjI1LCJ5Ijo0NDMuNzMzOTc4NDE3MTgzNH1d" data-look="classic" marker-end="url(#my-svg_flowchart-v2-pointEnd)"/><path d="M282.686,175L287.568,181.167C292.451,187.333,302.216,199.667,307.098,214.951C311.98,230.235,311.98,248.47,311.98,257.588L311.98,266.705" id="my-svg-L_TS_K_0" class="edge-thickness-normal edge-pattern-solid edge-thickness-normal edge-pattern-solid flowchart-link" style=";" data-edge="true" data-et="edge" data-id="L_TS_K_0" data-points="W3sieCI6MjgyLjY4NTc5MTAxNTYyNSwieSI6MTc1fSx7IngiOjMxMS45ODA0Njg3NSwieSI6MjEyfSx7IngiOjMxMS45ODA0Njg3NSwieSI6MjcwLjcwNTA0NzYwNzQyMTl9XQ==" data-look="classic" marker-end="url(#my-svg_flowchart-v2-pointEnd)"/><path d="M311.98,324.705L311.98,334.489C311.98,344.273,311.98,363.842,294.896,382.909C277.812,401.976,243.643,420.543,226.558,429.826L209.474,439.109" id="my-svg-L_K_FS_0" class="edge-thickness-normal edge-pattern-solid edge-thickness-normal edge-pattern-solid flowchart-link" style=";" data-edge="true" data-et="edge" data-id="L_K_FS_0" data-points="W3sieCI6MzExLjk4MDQ2ODc1LCJ5IjozMjQuNzA1MDQ3NjA3NDIxOX0seyJ4IjozMTEuOTgwNDY4NzUsInkiOjM4My40MTAwOTUyMTQ4NDM3NX0seyJ4IjoyMDUuOTU5MjQyNDA3MDQwOTMsInkiOjQ0MS4wMTkwNjU4NTY5MzM2fV0=" data-look="classic" marker-end="url(#my-svg_flowchart-v2-pointEnd)"/><path d="M134.017,495.019L126.104,504.621C118.191,514.222,102.365,533.425,97.099,548.809C91.833,564.192,97.127,575.756,99.774,581.538L102.421,587.32" id="my-svg-L_FS_RS_0" class="edge-thickness-normal edge-pattern-solid edge-thickness-normal edge-pattern-solid flowchart-link" style=";" data-edge="true" data-et="edge" data-id="L_FS_RS_0" data-points="W3sieCI6MTM0LjAxNzQ4NTg0Njc1MDM2LCJ5Ijo0OTUuMDE5MDY1ODU2OTMzNn0seyJ4Ijo4Ni41MzkwNjI1LCJ5Ijo1NTIuNjI4MDM2NDk5MDIzNH0seyJ4IjoxMDQuMDg1OTU1NDQ3MjI3MjQsInkiOjU5MC45NTY3ODczMjk4MjE3fV0=" data-look="classic" marker-end="url(#my-svg_flowchart-v2-pointEnd)"/><path d="M207.201,495.019L225.313,504.621C243.424,514.222,279.648,533.425,306.274,552.698C332.901,571.97,349.931,591.312,358.446,600.983L366.96,610.654" id="my-svg-L_FS_X_0" class="edge-thickness-normal edge-pattern-solid edge-thickness-normal edge-pattern-solid flowchart-link" style=";" data-edge="true" data-et="edge" data-id="L_FS_X_0" data-points="W3sieCI6MjA3LjIwMDc5OTU4NzEyMjUzLCJ5Ijo0OTUuMDE5MDY1ODU2OTMzNn0seyJ4IjozMTUuODcxMDkzNzUsInkiOjU1Mi42MjgwMzY0OTkwMjM0fSx7IngiOjM2OS42MDM3MzM3OTg4MzAyLCJ5Ijo2MTMuNjU2NDI5MjkwNzcxNX1d" data-look="classic" marker-end="url(#my-svg_flowchart-v2-pointEnd)"/><path d="M689.766,47.5L689.682,53.583C689.599,59.667,689.432,71.833,689.349,83.417C689.266,95,689.266,106,689.266,111.5L689.266,117" id="my-svg-L_Client_TLS_0" class="edge-thickness-normal edge-pattern-solid edge-thickness-normal edge-pattern-solid flowchart-link" style=";" data-edge="true" data-et="edge" data-id="L_Client_TLS_0" data-points="W3sieCI6Njg5Ljc2NTYyNSwieSI6NDcuNTAwMDAwMDAwMDAwMTN9LHsieCI6Njg5LjI2NTYyNSwieSI6ODR9LHsieCI6Njg5LjI2NTYyNSwieSI6MTIxfV0=" data-look="classic" marker-end="url(#my-svg_flowchart-v2-pointEnd)"/><path d="M615.47,175L598.616,181.167C581.762,187.333,548.053,199.667,531.198,220.118C514.344,240.568,514.344,269.137,514.344,297.705C514.344,326.273,514.344,354.842,514.344,383.227C514.344,411.613,514.344,439.816,514.344,468.019C514.344,496.222,514.344,524.425,462.913,552.052C411.482,579.678,308.621,606.729,257.19,620.254L205.759,633.779" id="my-svg-L_TLS_RS_0" class="edge-thickness-normal edge-pattern-solid edge-thickness-normal edge-pattern-solid flowchart-link" style=";" data-edge="true" data-et="edge" data-id="L_TLS_RS_0" data-points="W3sieCI6NjE1LjQ3MDQ1ODk4NDM3NSwieSI6MTc1fSx7IngiOjUxNC4zNDM3NSwieSI6MjEyfSx7IngiOjUxNC4zNDM3NSwieSI6Mjk3LjcwNTA0NzYwNzQyMTl9LHsieCI6NTE0LjM0Mzc1LCJ5IjozODMuNDEwMDk1MjE0ODQzNzV9LHsieCI6NTE0LjM0Mzc1LCJ5Ijo0NjguMDE5MDY1ODU2OTMzNn0seyJ4Ijo1MTQuMzQzNzUsInkiOjU1Mi42MjgwMzY0OTkwMjM0fSx7IngiOjIwMS44OTA2MjUsInkiOjYzNC43OTY0OTA5Mzg4Nzc1fV0=" data-look="classic" marker-end="url(#my-svg_flowchart-v2-pointEnd)"/><path d="M652.589,175L644.212,181.167C635.835,187.333,619.082,199.667,610.705,211.333C602.328,223,602.328,234,602.328,239.5L602.328,245" id="my-svg-L_TLS_TC_0" class="edge-thickness-normal edge-pattern-solid edge-thickness-normal edge-pattern-solid flowchart-link" style=";" data-edge="true" data-et="edge" data-id="L_TLS_TC_0" data-points="W3sieCI6NjUyLjU4ODg2NzE4NzUsInkiOjE3NX0seyJ4Ijo2MDIuMzI4MTI1LCJ5IjoyMTJ9LHsieCI6NjAyLjMyODEyNSwieSI6MjQ5fV0=" data-look="classic" marker-end="url(#my-svg_flowchart-v2-pointEnd)"/><path d="M602.328,346.41L602.328,352.577C602.328,358.743,602.328,371.077,572.86,388.196C543.392,405.315,484.455,427.22,454.987,438.173L425.519,449.125" id="my-svg-L_TC_DB_0" class="edge-thickness-normal edge-pattern-solid edge-thickness-normal edge-pattern-solid flowchart-link" style=";" data-edge="true" data-et="edge" data-id="L_TC_DB_0" data-points="W3sieCI6NjAyLjMyODEyNSwieSI6MzQ2LjQxMDA5NTIxNDg0Mzc1fSx7IngiOjYwMi4zMjgxMjUsInkiOjM4My40MTAwOTUyMTQ4NDM3NX0seyJ4Ijo0MjEuNzY5NTMxMjUsInkiOjQ1MC41MTg1Njc2ODIzNTc4NX1d" data-look="classic" marker-end="url(#my-svg_flowchart-v2-pointEnd)"/><path d="M744.446,175L757.048,181.167C769.651,187.333,794.857,199.667,807.46,214.951C820.063,230.235,820.063,248.47,820.063,257.588L820.063,266.705" id="my-svg-L_TLS_CTS_0" class="edge-thickness-normal edge-pattern-solid edge-thickness-normal edge-pattern-solid flowchart-link" style=";" data-edge="true" data-et="edge" data-id="L_TLS_CTS_0" data-points="W3sieCI6NzQ0LjQ0NTU1NjY0MDYyNSwieSI6MTc1fSx7IngiOjgyMC4wNjI1LCJ5IjoyMTJ9LHsieCI6ODIwLjA2MjUsInkiOjI3MC43MDUwNDc2MDc0MjE5fV0=" data-look="classic" marker-end="url(#my-svg_flowchart-v2-pointEnd)"/><path d="M778.492,166.761L814.352,174.301C850.211,181.841,921.93,196.92,966.917,213.768C1011.904,230.616,1030.159,249.233,1039.287,258.541L1048.414,267.849" id="my-svg-L_TLS_ML_0" class="edge-thickness-normal edge-pattern-solid edge-thickness-normal edge-pattern-solid flowchart-link" style=";" data-edge="true" data-et="edge" data-id="L_TLS_ML_0" data-points="W3sieCI6Nzc4LjQ5MjE4NzUsInkiOjE2Ni43NjA5MTQ3NjA5MTQ3N30seyJ4Ijo5OTMuNjQ4NDM3NSwieSI6MjEyfSx7IngiOjEwNTEuMjE1MDE3NTIzODE4NSwieSI6MjcwLjcwNTA0NzYwNzQyMTl9XQ==" data-look="classic" marker-end="url(#my-svg_flowchart-v2-pointEnd)"/><path d="M1077.806,270.705L1077.847,260.921C1077.889,251.137,1077.972,231.568,1078.013,211.118C1078.055,190.667,1078.055,169.333,1078.055,148C1078.055,126.667,1078.055,105.333,1019.516,86.23C960.978,67.127,843.9,50.254,785.362,41.817L726.823,33.381" id="my-svg-L_ML_Client_0" class="edge-thickness-normal edge-pattern-solid edge-thickness-normal edge-pattern-solid flowchart-link" style=";" data-edge="true" data-et="edge" data-id="L_ML_Client_0" data-points="W3sieCI6MTA3Ny44MDU4NTIxNzg0OTMzLCJ5IjoyNzAuNzA1MDQ3NjA3NDIxOX0seyJ4IjoxMDc4LjA1NDY4NzUsInkiOjIxMn0seyJ4IjoxMDc4LjA1NDY4NzUsInkiOjE0OH0seyJ4IjoxMDc4LjA1NDY4NzUsInkiOjg0fSx7IngiOjcyMi44NjQxOTA0ODU4NTI0LCJ5IjozMi44MDk5ODM0MzQwMTM1NDZ9XQ==" data-look="classic" marker-end="url(#my-svg_flowchart-v2-pointEnd)"/></g><g class="edgeLabels"><g class="edgeLabel" transform="translate(261.30859375, 84)"><g class="label" data-id="L_Client_TS_0" transform="translate(-45.828125, -12)"><foreignObject width="91.65625" height="24"><div xmlns="http://www.w3.org/1999/xhtml" class="labelBkg" style="display: table-cell; white-space: nowrap; line-height: 1.5; max-width: 703px; text-align: center;"><span class="edgeLabel"><p>POST /tweet</p></span></div></foreignObject></g></g><g class="edgeLabel" transform="translate(210.63671875, 297.7050476074219)"><g class="label" data-id="L_TS_DB_0" transform="translate(-16.3359375, -12)"><foreignObject width="32.671875" height="24"><div xmlns="http://www.w3.org/1999/xhtml" class="labelBkg" style="display: table-cell; white-space: nowrap; line-height: 1.5; max-width: 703px; text-align: center;"><span class="edgeLabel"><p>Save</p></span></div></foreignObject></g></g><g class="edgeLabel" transform="translate(311.98046875, 212)"><g class="label" data-id="L_TS_K_0" transform="translate(-75.890625, -12)"><foreignObject width="151.78125" height="24"><div xmlns="http://www.w3.org/1999/xhtml" class="labelBkg" style="display: table-cell; white-space: nowrap; line-height: 1.5; max-width: 703px; text-align: center;"><span class="edgeLabel"><p>Publish tweet.posted</p></span></div></foreignObject></g></g><g class="edgeLabel"><g class="label" data-id="L_K_FS_0" transform="translate(0, 0)"><foreignObject width="0" height="0"><div xmlns="http://www.w3.org/1999/xhtml" class="labelBkg" style="display: table-cell; white-space: nowrap; line-height: 1.5; max-width: 703px; text-align: center;"><span class="edgeLabel"></span></div></foreignObject></g></g><g class="edgeLabel" transform="translate(86.5390625, 552.6280364990234)"><g class="label" data-id="L_FS_RS_0" transform="translate(-78.5390625, -12)"><foreignObject width="157.078125" height="24"><div xmlns="http://www.w3.org/1999/xhtml" class="labelBkg" style="display: table-cell; white-space: nowrap; line-height: 1.5; max-width: 703px; text-align: center;"><span class="edgeLabel"><p>Normal user followers</p></span></div></foreignObject></g></g><g class="edgeLabel" transform="translate(315.87109375, 552.6280364990234)"><g class="label" data-id="L_FS_X_0" transform="translate(-68.109375, -12)"><foreignObject width="136.21875" height="24"><div xmlns="http://www.w3.org/1999/xhtml" class="labelBkg" style="display: table-cell; white-space: nowrap; line-height: 1.5; max-width: 703px; text-align: center;"><span class="edgeLabel"><p>Celebrity skip push</p></span></div></foreignObject></g></g><g class="edgeLabel" transform="translate(689.265625, 84)"><g class="label" data-id="L_Client_TLS_0" transform="translate(-36.9453125, -12)"><foreignObject width="73.890625" height="24"><div xmlns="http://www.w3.org/1999/xhtml" class="labelBkg" style="display: table-cell; white-space: nowrap; line-height: 1.5; max-width: 703px; text-align: center;"><span class="edgeLabel"><p>GET /feed</p></span></div></foreignObject></g></g><g class="edgeLabel"><g class="label" data-id="L_TLS_RS_0" transform="translate(0, 0)"><foreignObject width="0" height="0"><div xmlns="http://www.w3.org/1999/xhtml" class="labelBkg" style="display: table-cell; white-space: nowrap; line-height: 1.5; max-width: 703px; text-align: center;"><span class="edgeLabel"></span></div></foreignObject></g></g><g class="edgeLabel" transform="translate(602.328125, 212)"><g class="label" data-id="L_TLS_TC_0" transform="translate(-50.1796875, -12)"><foreignObject width="100.359375" height="24"><div xmlns="http://www.w3.org/1999/xhtml" class="labelBkg" style="display: table-cell; white-space: nowrap; line-height: 1.5; max-width: 703px; text-align: center;"><span class="edgeLabel"><p>Fetch content</p></span></div></foreignObject></g></g><g class="edgeLabel" transform="translate(602.328125, 383.41009521484375)"><g class="label" data-id="L_TC_DB_0" transform="translate(-39.4921875, -12)"><foreignObject width="78.984375" height="24"><div xmlns="http://www.w3.org/1999/xhtml" class="labelBkg" style="display: table-cell; white-space: nowrap; line-height: 1.5; max-width: 703px; text-align: center;"><span class="edgeLabel"><p>Cache miss</p></span></div></foreignObject></g></g><g class="edgeLabel" transform="translate(820.0625, 212)"><g class="label" data-id="L_TLS_CTS_0" transform="translate(-82.125, -12)"><foreignObject width="164.25" height="24"><div xmlns="http://www.w3.org/1999/xhtml" class="labelBkg" style="display: table-cell; white-space: nowrap; line-height: 1.5; max-width: 703px; text-align: center;"><span class="edgeLabel"><p>Inject celebrity tweets</p></span></div></foreignObject></g></g><g class="edgeLabel" transform="translate(926.30083, 197.83939)"><g class="label" data-id="L_TLS_ML_0" transform="translate(-37.96875, -12)"><foreignObject width="75.9375" height="24"><div xmlns="http://www.w3.org/1999/xhtml" class="labelBkg" style="display: table-cell; white-space: nowrap; line-height: 1.5; max-width: 703px; text-align: center;"><span class="edgeLabel"><p>ML re-rank</p></span></div></foreignObject></g></g><g class="edgeLabel"><g class="label" data-id="L_ML_Client_0" transform="translate(0, 0)"><foreignObject width="0" height="0"><div xmlns="http://www.w3.org/1999/xhtml" class="labelBkg" style="display: table-cell; white-space: nowrap; line-height: 1.5; max-width: 703px; text-align: center;"><span class="edgeLabel"></span></div></foreignObject></g></g></g><g class="nodes"><g class="node default" id="my-svg-flowchart-Client-0" data-look="classic" transform="translate(689.265625, 27.5)"><g class="basic label-container outer-path"><path d="M-14.2109375 -19.5 C-5.445556112478803 -19.5, 3.319825275042394 -19.5, 14.2109375 -19.5 C14.2109375 -19.5, 14.210937499999998 -19.5, 14.210937499999998 -19.5 C14.677161318269398 -19.48504910959771, 15.1433851365388 -19.47009821919542, 15.4603067896239 -19.45993515863156 C15.872911697389728 -19.420131659409392, 16.285516605155557 -19.380328160187226, 16.704542152847864 -19.3399052695533 C17.126444354339966 -19.271695393516495, 17.54834655583207 -19.20348551747969, 17.93853075967676 -19.140403561325776 C18.300864683090815 -19.057703207756337, 18.663198606504867 -18.975002854186897, 19.15720188623539 -18.862249829261074 C19.46100927390808 -18.77208139131734, 19.76481666158077 -18.681912953373608, 20.355547751460602 -18.50658706670804 C20.784595684738473 -18.348693461186166, 21.21364361801634 -18.190799855664288, 21.528644095147794 -18.074876768247425 C21.760101301590513 -17.972417528889313, 21.991558508033236 -17.869958289531205, 22.67167041279238 -17.568892924097174 C23.080637790177878 -17.355534905271266, 23.48960516756338 -17.14217688644536, 23.779929764076783 -16.990714730406097 C24.173949345839052 -16.751857744425728, 24.567968927601324 -16.513000758445358, 24.848868073605697 -16.342718045390892 C25.095249370301772 -16.170853118490143, 25.341630666997847 -15.998988191589396, 25.874092844578712 -15.627565626425154 C26.182619744133362 -15.381523634275926, 26.491146643688015 -15.135481642126695, 26.85139120850187 -14.848196188198123 C27.07870653355824 -14.641754424415849, 27.30602185861461 -14.435312660633574, 27.776747236767985 -14.007812326905688 C27.971131187468384 -13.807094938588373, 28.165515138168782 -13.606377550271056, 28.646358442968648 -13.10986736009568 C28.88694207735036 -12.827264133554321, 29.12752571173207 -12.54466090701296, 29.456651408126582 -12.158051136245305 C29.725788753336683 -11.797431612580318, 29.994926098546784 -11.43681208891533, 30.204296464640635 -11.156274872382312 C30.37728003187578 -10.890525660517348, 30.55026359911093 -10.624776448652383, 30.886221378604247 -10.108655082055241 C31.11815108131332 -9.696840409466205, 31.3500807840224 -9.28502573687717, 31.4996239742735 -9.019496659696287 C31.680929643690913 -8.643011557831162, 31.86223531310832 -8.266526455966037, 32.04198364880834 -7.893275190886684 C32.20397799760842 -7.493146017402829, 32.36597234640849 -7.093016843918974, 32.511071729970325 -6.734618561215508 C32.604540968666974 -6.453104106561972, 32.69801020736362 -6.171589651908437, 32.90496063421488 -5.548287939305138 C32.99010291966529 -5.22360350398279, 33.0752452051157 -4.898919068660444, 33.22203178754556 -4.339158212148133 C33.31529555511528 -3.86026847698187, 33.408559322685 -3.381378741815607, 33.460982276581774 -3.1121979531509023 C33.50322294386882 -2.7845876790357993, 33.54546361115587 -2.456977404920696, 33.62083020250937 -1.872449005199798 C33.64579811632438 -1.4835535937937225, 33.67076603013939 -1.0946581823876471, 33.70091871591342 -0.6250057626472757 C33.70091871591342 -0.3226997095823744, 33.70091871591342 -0.020393656517473158, 33.70091871591342 0.625005762647271 C33.68335840593236 0.8985217650293347, 33.6657980959513 1.1720377674113982, 33.62083020250937 1.8724490051997846 C33.58522569664441 2.148590521783478, 33.54962119077945 2.4247320383671718, 33.460982276581774 3.1121979531508885 C33.39603304224802 3.445698544429168, 33.331083807914275 3.7791991357074473, 33.22203178754556 4.339158212148129 C33.10639891508628 4.780116470439293, 32.99076604262701 5.221074728730459, 32.90496063421489 5.548287939305125 C32.76694832321637 5.963959030757104, 32.62893601221785 6.379630122209083, 32.511071729970325 6.734618561215495 C32.38108589559623 7.05568608522466, 32.25110006122213 7.376753609233825, 32.04198364880834 7.893275190886679 C31.888963708249456 8.211024371559434, 31.73594376769057 8.528773552232188, 31.499623974273504 9.019496659696284 C31.268291705094526 9.430250528555925, 31.03695943591555 9.841004397415567, 30.88622137860425 10.108655082055236 C30.6456194843427 10.478284202295931, 30.40501759008115 10.847913322536625, 30.20429646464064 11.156274872382301 C29.95327296594474 11.492623491923624, 29.70224946724884 11.828972111464946, 29.456651408126582 12.158051136245302 C29.194608508509408 12.465861636799023, 28.932565608892236 12.773672137352742, 28.64635844296866 13.10986736009567 C28.302850032557405 13.46456799641028, 27.95934162214615 13.81926863272489, 27.77674723676799 14.007812326905684 C27.503863055079776 14.255638520595122, 27.230978873391564 14.50346471428456, 26.851391208501887 14.848196188198111 C26.524059128552018 15.109234811285658, 26.19672704860215 15.370273434373207, 25.874092844578715 15.627565626425152 C25.668225514926604 15.771169763737399, 25.46235818527449 15.914773901049648, 24.848868073605708 16.34271804539089 C24.556403071109997 16.520012048618916, 24.263938068614287 16.697306051846947, 23.779929764076787 16.990714730406093 C23.494761050129306 17.139487065813217, 23.209592336181824 17.288259401220337, 22.671670412792388 17.56889292409717 C22.35949753809997 17.707082595444195, 22.047324663407547 17.84527226679122, 21.528644095147804 18.07487676824742 C21.06429928124269 18.24575995212091, 20.59995446733758 18.416643135994395, 20.355547751460616 18.506587066708033 C20.034720675357214 18.601806858839836, 19.713893599253808 18.69702665097164, 19.157201886235413 18.86224982926107 C18.787363417870495 18.94666304624381, 18.41752494950558 19.03107626322655, 17.938530759676766 19.140403561325773 C17.449848816195072 19.21940986816282, 16.961166872713374 19.298416174999872, 16.70454215284788 19.3399052695533 C16.346782450199075 19.374417917798837, 15.989022747550274 19.408930566044372, 15.4603067896239 19.45993515863156 C15.11401332782837 19.47104011593201, 14.767719866032841 19.48214507323246, 14.210937500000004 19.5 C14.210937500000002 19.5, 14.210937500000002 19.5, 14.2109375 19.5 C4.939474017388429 19.5, -4.331989465223142 19.5, -14.210937499999996 19.5 C-14.68363177928969 19.484841614506777, -15.156326058579385 19.469683229013558, -15.460306789623893 19.45993515863156 C-15.819140376009312 19.425318914113486, -16.17797396239473 19.39070266959541, -16.70454215284787 19.3399052695533 C-17.00046102687593 19.292063400885585, -17.296379900903986 19.24422153221787, -17.93853075967676 19.140403561325773 C-18.264356796367494 19.066035894664708, -18.59018283305823 18.99166822800364, -19.157201886235388 18.862249829261074 C-19.54246040187449 18.747907124082605, -19.92771891751359 18.633564418904136, -20.35554775146059 18.506587066708043 C-20.679746071109342 18.38727908822089, -21.003944390758093 18.267971109733733, -21.528644095147797 18.074876768247425 C-21.816772876599366 17.94733070373544, -22.104901658050935 17.819784639223453, -22.67167041279238 17.568892924097174 C-22.91175746019419 17.443639665250746, -23.151844507595992 17.318386406404315, -23.77992976407678 16.990714730406097 C-24.183962584564384 16.74578766026611, -24.587995405051984 16.50086059012612, -24.848868073605686 16.3427180453909 C-25.187077922333874 16.1067974957865, -25.52528777106206 15.8708769461821, -25.874092844578712 15.627565626425156 C-26.2441626904438 15.332444772319935, -26.61423253630889 15.037323918214712, -26.85139120850187 14.848196188198125 C-27.121780244178787 14.6026360200982, -27.392169279855704 14.357075851998275, -27.776747236767974 14.007812326905697 C-28.048509524332502 13.727195452896565, -28.320271811897033 13.446578578887433, -28.646358442968655 13.109867360095677 C-28.958098093367788 12.74368022824824, -29.269837743766917 12.377493096400801, -29.45665140812658 12.158051136245307 C-29.71022658742325 11.818283497161836, -29.963801766719925 11.478515858078364, -30.204296464640635 11.156274872382316 C-30.379178748310828 10.887608722196365, -30.554061031981025 10.618942572010415, -30.886221378604244 10.108655082055249 C-31.116906168194305 9.699050878770146, -31.347590957784366 9.289446675485042, -31.4996239742735 9.019496659696289 C-31.695475850772386 8.612806047587512, -31.89132772727127 8.206115435478734, -32.04198364880834 7.893275190886686 C-32.19801273007793 7.507880343533734, -32.35404181134752 7.122485496180782, -32.511071729970325 6.73461856121551 C-32.62582310593722 6.38900569995207, -32.74057448190412 6.043392838688629, -32.90496063421488 5.5482879393051325 C-32.969870481746895 5.300758558559695, -33.03478032927891 5.053229177814257, -33.22203178754556 4.339158212148136 C-33.29621443505691 3.958245995685467, -33.37039708256825 3.577333779222798, -33.460982276581774 3.112197953150904 C-33.50510101237888 2.7700217505383513, -33.549219748175986 2.4278455479257985, -33.62083020250937 1.872449005199809 C-33.64804801052483 1.4485096755397293, -33.675265818540296 1.0245703458796496, -33.70091871591342 0.6250057626472781 C-33.70091871591342 0.2661606299076992, -33.70091871591342 -0.09268450283187979, -33.70091871591342 -0.6250057626472687 C-33.67398101945678 -1.0445821286765735, -33.64704332300015 -1.4641584947058783, -33.62083020250937 -1.8724490051997822 C-33.58671619442961 -2.137030515293498, -33.55260218634986 -2.401612025387214, -33.460982276581774 -3.112197953150895 C-33.37952890350587 -3.5304438087191516, -33.298075530429976 -3.948689664287408, -33.22203178754556 -4.339158212148126 C-33.135003342397546 -4.6710353918642395, -33.047974897249524 -5.002912571580353, -32.90496063421489 -5.548287939305123 C-32.78634293516856 -5.905545549668865, -32.66772523612224 -6.2628031600326075, -32.51107172997033 -6.734618561215485 C-32.346183671325974 -7.141895253960786, -32.18129561268162 -7.549171946706086, -32.04198364880834 -7.893275190886676 C-31.91372046859539 -8.159616428991288, -31.785457288382435 -8.425957667095899, -31.499623974273504 -9.019496659696282 C-31.312805996907457 -9.351210895881238, -31.125988019541406 -9.682925132066195, -30.886221378604247 -10.108655082055243 C-30.72976478834395 -10.349014419172125, -30.573308198083655 -10.589373756289008, -30.20429646464064 -11.156274872382308 C-29.989077292430895 -11.44464895627343, -29.77385812022115 -11.733023040164548, -29.456651408126586 -12.158051136245302 C-29.245284016235885 -12.406335301905433, -29.03391662434518 -12.654619467565563, -28.646358442968662 -13.10986736009567 C-28.470823743492172 -13.291121348971993, -28.295289044015682 -13.472375337848314, -27.776747236767996 -14.007812326905677 C-27.531963601993027 -14.230118347388235, -27.28717996721806 -14.452424367870792, -26.851391208501887 -14.848196188198107 C-26.64335435177373 -15.014100045345554, -26.435317495045577 -15.180003902492999, -25.87409284457872 -15.627565626425149 C-25.62003597817507 -15.804784698483841, -25.365979111771427 -15.982003770542535, -24.84886807360571 -16.342718045390885 C-24.515013689315126 -16.545102535093974, -24.181159305024536 -16.747487024797064, -23.77992976407679 -16.99071473040609 C-23.495218476652994 -17.139248426688802, -23.210507189229194 -17.287782122971514, -22.671670412792388 -17.56889292409717 C-22.251316967515127 -17.754970924979496, -21.83096352223787 -17.94104892586182, -21.528644095147804 -18.07487676824742 C-21.133662825538963 -18.220233526630306, -20.738681555930118 -18.365590285013194, -20.35554775146062 -18.506587066708033 C-20.066810876996556 -18.592282655438186, -19.77807400253249 -18.677978244168337, -19.157201886235413 -18.862249829261067 C-18.894313607513116 -18.92225236337309, -18.63142532879082 -18.982254897485113, -17.938530759676766 -19.140403561325773 C-17.58387951158976 -19.197740824754973, -17.229228263502755 -19.255078088184177, -16.704542152847882 -19.3399052695533 C-16.215407150198956 -19.387091534987935, -15.72627214755003 -19.434277800422567, -15.460306789623903 -19.45993515863156 C-15.115654422894115 -19.47098748920745, -14.771002056164326 -19.48203981978334, -14.210937500000005 -19.5 C-14.210937500000004 -19.5, -14.210937500000002 -19.5, -14.2109375 -19.5" stroke="none" stroke-width="0" fill="#1f6feb" style="fill:#1f6feb !important"/><path d="M-14.2109375 -19.5 C-5.372574112853146 -19.5, 3.4657892742937086 -19.5, 14.2109375 -19.5 M-14.2109375 -19.5 C-4.382590101313648 -19.5, 5.445757297372705 -19.5, 14.2109375 -19.5 M14.2109375 -19.5 C14.2109375 -19.5, 14.210937499999998 -19.5, 14.210937499999998 -19.5 M14.2109375 -19.5 C14.2109375 -19.5, 14.210937499999998 -19.5, 14.210937499999998 -19.5 M14.210937499999998 -19.5 C14.585448621852336 -19.487990157263873, 14.959959743704674 -19.475980314527746, 15.4603067896239 -19.45993515863156 M14.210937499999998 -19.5 C14.513788499752788 -19.490288157901638, 14.81663949950558 -19.480576315803276, 15.4603067896239 -19.45993515863156 M15.4603067896239 -19.45993515863156 C15.741154757449573 -19.432842092944515, 16.022002725275247 -19.40574902725747, 16.704542152847864 -19.3399052695533 M15.4603067896239 -19.45993515863156 C15.74836024243218 -19.432146988474106, 16.03641369524046 -19.404358818316652, 16.704542152847864 -19.3399052695533 M16.704542152847864 -19.3399052695533 C17.03324738700106 -19.286762756442574, 17.36195262115426 -19.23362024333185, 17.93853075967676 -19.140403561325776 M16.704542152847864 -19.3399052695533 C17.117402201490105 -19.27315725866632, 17.530262250132346 -19.206409247779337, 17.93853075967676 -19.140403561325776 M17.93853075967676 -19.140403561325776 C18.254506749123788 -19.06828410367052, 18.570482738570817 -18.996164646015266, 19.15720188623539 -18.862249829261074 M17.93853075967676 -19.140403561325776 C18.30735563213936 -19.056221690993407, 18.67618050460196 -18.97203982066104, 19.15720188623539 -18.862249829261074 M19.15720188623539 -18.862249829261074 C19.630267321316676 -18.72184649130009, 20.103332756397965 -18.581443153339105, 20.355547751460602 -18.50658706670804 M19.15720188623539 -18.862249829261074 C19.492970542692746 -18.762595454510176, 19.828739199150096 -18.66294107975928, 20.355547751460602 -18.50658706670804 M20.355547751460602 -18.50658706670804 C20.630199392541474 -18.40551272393834, 20.904851033622343 -18.30443838116864, 21.528644095147794 -18.074876768247425 M20.355547751460602 -18.50658706670804 C20.728347759724286 -18.369393217541504, 21.101147767987968 -18.232199368374967, 21.528644095147794 -18.074876768247425 M21.528644095147794 -18.074876768247425 C21.796435012477758 -17.95633367288077, 22.064225929807726 -17.837790577514117, 22.67167041279238 -17.568892924097174 M21.528644095147794 -18.074876768247425 C21.881583132234333 -17.918641126093764, 22.234522169320872 -17.762405483940107, 22.67167041279238 -17.568892924097174 M22.67167041279238 -17.568892924097174 C23.070594038785416 -17.360774723939386, 23.46951766477845 -17.152656523781598, 23.779929764076783 -16.990714730406097 M22.67167041279238 -17.568892924097174 C23.07616539687374 -17.357868149993333, 23.4806603809551 -17.14684337588949, 23.779929764076783 -16.990714730406097 M23.779929764076783 -16.990714730406097 C24.054462041831258 -16.824291650300594, 24.328994319585732 -16.657868570195088, 24.848868073605697 -16.342718045390892 M23.779929764076783 -16.990714730406097 C24.14003540580473 -16.772416574174965, 24.50014104753268 -16.554118417943837, 24.848868073605697 -16.342718045390892 M24.848868073605697 -16.342718045390892 C25.145890252083404 -16.13552823156772, 25.442912430561115 -15.928338417744541, 25.874092844578712 -15.627565626425154 M24.848868073605697 -16.342718045390892 C25.089658638332914 -16.174752971092733, 25.330449203060127 -16.006787896794577, 25.874092844578712 -15.627565626425154 M25.874092844578712 -15.627565626425154 C26.083594415395478 -15.46049369876972, 26.293095986212244 -15.293421771114287, 26.85139120850187 -14.848196188198123 M25.874092844578712 -15.627565626425154 C26.153343304505693 -15.404870815800216, 26.43259376443267 -15.182176005175275, 26.85139120850187 -14.848196188198123 M26.85139120850187 -14.848196188198123 C27.124255127557927 -14.60038839649509, 27.397119046613984 -14.352580604792058, 27.776747236767985 -14.007812326905688 M26.85139120850187 -14.848196188198123 C27.153095715691894 -14.574196137431967, 27.454800222881918 -14.300196086665812, 27.776747236767985 -14.007812326905688 M27.776747236767985 -14.007812326905688 C28.049981855861184 -13.725675149712536, 28.323216474954382 -13.443537972519385, 28.646358442968648 -13.10986736009568 M27.776747236767985 -14.007812326905688 C28.037381361607753 -13.738686194549022, 28.29801548644752 -13.469560062192354, 28.646358442968648 -13.10986736009568 M28.646358442968648 -13.10986736009568 C28.916581767008694 -12.792447667535518, 29.186805091048743 -12.475027974975355, 29.456651408126582 -12.158051136245305 M28.646358442968648 -13.10986736009568 C28.837749683506317 -12.885048318490037, 29.029140924043983 -12.660229276884394, 29.456651408126582 -12.158051136245305 M29.456651408126582 -12.158051136245305 C29.699384046806905 -11.83281151381197, 29.94211668548723 -11.507571891378637, 30.204296464640635 -11.156274872382312 M29.456651408126582 -12.158051136245305 C29.645209239773337 -11.9054008198105, 29.83376707142009 -11.652750503375696, 30.204296464640635 -11.156274872382312 M30.204296464640635 -11.156274872382312 C30.471257446166877 -10.746151115697051, 30.73821842769312 -10.336027359011789, 30.886221378604247 -10.108655082055241 M30.204296464640635 -11.156274872382312 C30.341811642060154 -10.945014631870388, 30.479326819479674 -10.733754391358463, 30.886221378604247 -10.108655082055241 M30.886221378604247 -10.108655082055241 C31.114763702352587 -9.702855043820309, 31.343306026100926 -9.297055005585376, 31.4996239742735 -9.019496659696287 M30.886221378604247 -10.108655082055241 C31.108691225558143 -9.713637341273797, 31.33116107251204 -9.318619600492351, 31.4996239742735 -9.019496659696287 M31.4996239742735 -9.019496659696287 C31.6163475428034 -8.777117672159676, 31.7330711113333 -8.534738684623065, 32.04198364880834 -7.893275190886684 M31.4996239742735 -9.019496659696287 C31.654167652859094 -8.698583404408303, 31.808711331444687 -8.377670149120322, 32.04198364880834 -7.893275190886684 M32.04198364880834 -7.893275190886684 C32.212045930850444 -7.473218066312149, 32.38210821289254 -7.053160941737613, 32.511071729970325 -6.734618561215508 M32.04198364880834 -7.893275190886684 C32.209528746492175 -7.479435560343518, 32.37707384417601 -7.065595929800352, 32.511071729970325 -6.734618561215508 M32.511071729970325 -6.734618561215508 C32.65775012475614 -6.2928466061491255, 32.80442851954196 -5.851074651082742, 32.90496063421488 -5.548287939305138 M32.511071729970325 -6.734618561215508 C32.61139524971547 -6.432460104125286, 32.71171876946061 -6.130301647035064, 32.90496063421488 -5.548287939305138 M32.90496063421488 -5.548287939305138 C33.01426351528442 -5.131468681618682, 33.12356639635395 -4.714649423932228, 33.22203178754556 -4.339158212148133 M32.90496063421488 -5.548287939305138 C33.008092777191884 -5.155000380380328, 33.11122492016888 -4.761712821455519, 33.22203178754556 -4.339158212148133 M33.22203178754556 -4.339158212148133 C33.29277942464627 -3.9758840481544016, 33.36352706174697 -3.6126098841606704, 33.460982276581774 -3.1121979531509023 M33.22203178754556 -4.339158212148133 C33.282239838585326 -4.030002595035009, 33.3424478896251 -3.7208469779218856, 33.460982276581774 -3.1121979531509023 M33.460982276581774 -3.1121979531509023 C33.49905099471102 -2.8169444928591885, 33.53711971284026 -2.521691032567475, 33.62083020250937 -1.872449005199798 M33.460982276581774 -3.1121979531509023 C33.51536202115665 -2.690439392723377, 33.56974176573152 -2.2686808322958516, 33.62083020250937 -1.872449005199798 M33.62083020250937 -1.872449005199798 C33.64734265502806 -1.459496156754673, 33.67385510754675 -1.0465433083095481, 33.70091871591342 -0.6250057626472757 M33.62083020250937 -1.872449005199798 C33.65092562257958 -1.4036885450204217, 33.68102104264979 -0.9349280848410454, 33.70091871591342 -0.6250057626472757 M33.70091871591342 -0.6250057626472757 C33.70091871591342 -0.14057605418213392, 33.70091871591342 0.34385365428300785, 33.70091871591342 0.625005762647271 M33.70091871591342 -0.6250057626472757 C33.70091871591342 -0.3081047306923814, 33.70091871591342 0.008796301262512851, 33.70091871591342 0.625005762647271 M33.70091871591342 0.625005762647271 C33.679396881266335 0.9602257093878026, 33.65787504661925 1.2954456561283343, 33.62083020250937 1.8724490051997846 M33.70091871591342 0.625005762647271 C33.66893996227385 1.123100663368827, 33.63696120863429 1.6211955640903828, 33.62083020250937 1.8724490051997846 M33.62083020250937 1.8724490051997846 C33.56761974665992 2.2851387931750806, 33.51440929081048 2.6978285811503766, 33.460982276581774 3.1121979531508885 M33.62083020250937 1.8724490051997846 C33.56528827897419 2.303221196145296, 33.509746355439 2.7339933870908073, 33.460982276581774 3.1121979531508885 M33.460982276581774 3.1121979531508885 C33.40013613943228 3.4246300075779326, 33.33929000228277 3.737062062004977, 33.22203178754556 4.339158212148129 M33.460982276581774 3.1121979531508885 C33.39590771787746 3.446342058584669, 33.33083315917315 3.7804861640184497, 33.22203178754556 4.339158212148129 M33.22203178754556 4.339158212148129 C33.12291196162306 4.7171450671949335, 33.02379213570055 5.0951319222417375, 32.90496063421489 5.548287939305125 M33.22203178754556 4.339158212148129 C33.10812352959742 4.773539767855683, 32.994215271649274 5.2079213235632364, 32.90496063421489 5.548287939305125 M32.90496063421489 5.548287939305125 C32.792291894432005 5.887628232205314, 32.67962315464912 6.226968525105502, 32.511071729970325 6.734618561215495 M32.90496063421489 5.548287939305125 C32.7751973439436 5.939114294629641, 32.64543405367232 6.329940649954156, 32.511071729970325 6.734618561215495 M32.511071729970325 6.734618561215495 C32.409374355066376 6.9858130434132395, 32.30767698016243 7.237007525610985, 32.04198364880834 7.893275190886679 M32.511071729970325 6.734618561215495 C32.398689453001 7.012204958093245, 32.28630717603167 7.289791354970995, 32.04198364880834 7.893275190886679 M32.04198364880834 7.893275190886679 C31.921185238367123 8.1441156748398, 31.8003868279259 8.39495615879292, 31.499623974273504 9.019496659696284 M32.04198364880834 7.893275190886679 C31.92102867697381 8.14444077792289, 31.800073705139276 8.3956063649591, 31.499623974273504 9.019496659696284 M31.499623974273504 9.019496659696284 C31.26965788986213 9.427824729159834, 31.039691805450758 9.836152798623385, 30.88622137860425 10.108655082055236 M31.499623974273504 9.019496659696284 C31.293588470684345 9.385333559675923, 31.08755296709518 9.75117045965556, 30.88622137860425 10.108655082055236 M30.88622137860425 10.108655082055236 C30.631087277328277 10.500609574714064, 30.3759531760523 10.892564067372893, 30.20429646464064 11.156274872382301 M30.88622137860425 10.108655082055236 C30.68888513401007 10.411816545953176, 30.491548889415892 10.714978009851118, 30.20429646464064 11.156274872382301 M30.20429646464064 11.156274872382301 C29.939971493379456 11.510446253372026, 29.67564652211827 11.864617634361748, 29.456651408126582 12.158051136245302 M30.20429646464064 11.156274872382301 C30.04001829972036 11.376392647326778, 29.875740134800076 11.596510422271253, 29.456651408126582 12.158051136245302 M29.456651408126582 12.158051136245302 C29.22782775630004 12.4268404181154, 28.999004104473496 12.6956296999855, 28.64635844296866 13.10986736009567 M29.456651408126582 12.158051136245302 C29.29452429243234 12.348494871633983, 29.132397176738095 12.538938607022665, 28.64635844296866 13.10986736009567 M28.64635844296866 13.10986736009567 C28.31563185226128 13.451369718159116, 27.9849052615539 13.792872076222562, 27.77674723676799 14.007812326905684 M28.64635844296866 13.10986736009567 C28.435560800984536 13.327533232252547, 28.22476315900041 13.545199104409425, 27.77674723676799 14.007812326905684 M27.77674723676799 14.007812326905684 C27.481194595094887 14.276225416178814, 27.185641953421786 14.544638505451942, 26.851391208501887 14.848196188198111 M27.77674723676799 14.007812326905684 C27.41799713461974 14.33361967766917, 27.05924703247149 14.659427028432654, 26.851391208501887 14.848196188198111 M26.851391208501887 14.848196188198111 C26.59563767371432 15.052152826303804, 26.33988413892676 15.256109464409498, 25.874092844578715 15.627565626425152 M26.851391208501887 14.848196188198111 C26.531669247440604 15.103165943985783, 26.211947286379317 15.358135699773454, 25.874092844578715 15.627565626425152 M25.874092844578715 15.627565626425152 C25.612198879528652 15.810251519237054, 25.35030491447859 15.992937412048954, 24.848868073605708 16.34271804539089 M25.874092844578715 15.627565626425152 C25.52351720250475 15.872112018161003, 25.172941560430782 16.116658409896853, 24.848868073605708 16.34271804539089 M24.848868073605708 16.34271804539089 C24.535154778491208 16.532892888473256, 24.221441483376708 16.72306773155562, 23.779929764076787 16.990714730406093 M24.848868073605708 16.34271804539089 C24.548806939228633 16.524616868405225, 24.24874580485156 16.70651569141956, 23.779929764076787 16.990714730406093 M23.779929764076787 16.990714730406093 C23.400711892953836 17.188552450870297, 23.02149402183089 17.3863901713345, 22.671670412792388 17.56889292409717 M23.779929764076787 16.990714730406093 C23.40412046965365 17.1867741985893, 23.02831117523051 17.382833666772513, 22.671670412792388 17.56889292409717 M22.671670412792388 17.56889292409717 C22.263476955065116 17.74958805920433, 21.855283497337844 17.930283194311492, 21.528644095147804 18.07487676824742 M22.671670412792388 17.56889292409717 C22.391524077609333 17.692905396436938, 22.11137774242628 17.816917868776706, 21.528644095147804 18.07487676824742 M21.528644095147804 18.07487676824742 C21.201530636591876 18.195257544799667, 20.87441717803595 18.31563832135191, 20.355547751460616 18.506587066708033 M21.528644095147804 18.07487676824742 C21.26079723964288 18.173446887022422, 20.992950384137956 18.272017005797426, 20.355547751460616 18.506587066708033 M20.355547751460616 18.506587066708033 C19.92277685208709 18.63503119798129, 19.49000595271356 18.763475329254547, 19.157201886235413 18.86224982926107 M20.355547751460616 18.506587066708033 C19.94076135527211 18.62969349183856, 19.5259749590836 18.75279991696909, 19.157201886235413 18.86224982926107 M19.157201886235413 18.86224982926107 C18.692210564533344 18.96838106408762, 18.22721924283127 19.074512298914165, 17.938530759676766 19.140403561325773 M19.157201886235413 18.86224982926107 C18.848451870011832 18.932720005681954, 18.539701853788248 19.00319018210284, 17.938530759676766 19.140403561325773 M17.938530759676766 19.140403561325773 C17.529942603723867 19.206460925731765, 17.12135444777097 19.272518290137757, 16.70454215284788 19.3399052695533 M17.938530759676766 19.140403561325773 C17.555781301432432 19.20228352546834, 17.1730318431881 19.2641634896109, 16.70454215284788 19.3399052695533 M16.70454215284788 19.3399052695533 C16.223607725122783 19.386300435387664, 15.742673297397687 19.432695601222033, 15.4603067896239 19.45993515863156 M16.70454215284788 19.3399052695533 C16.437570345250453 19.365659718751647, 16.170598537653028 19.391414167949996, 15.4603067896239 19.45993515863156 M15.4603067896239 19.45993515863156 C15.101851554717358 19.471430120324225, 14.743396319810817 19.482925082016887, 14.210937500000004 19.5 M15.4603067896239 19.45993515863156 C15.023003288985933 19.473958630737393, 14.585699788347966 19.487982102843223, 14.210937500000004 19.5 M14.210937500000004 19.5 C14.210937500000002 19.5, 14.210937500000002 19.5, 14.2109375 19.5 M14.210937500000004 19.5 C14.210937500000002 19.5, 14.2109375 19.5, 14.2109375 19.5 M14.2109375 19.5 C5.278725274921307 19.5, -3.6534869501573866 19.5, -14.210937499999996 19.5 M14.2109375 19.5 C6.650537552116193 19.5, -0.9098623957676146 19.5, -14.210937499999996 19.5 M-14.210937499999996 19.5 C-14.702220184040568 19.484245520546555, -15.193502868081138 19.468491041093106, -15.460306789623893 19.45993515863156 M-14.210937499999996 19.5 C-14.620053176474222 19.48688045655083, -15.029168852948446 19.473760913101657, -15.460306789623893 19.45993515863156 M-15.460306789623893 19.45993515863156 C-15.787019812352018 19.428417546258874, -16.113732835080143 19.39689993388619, -16.70454215284787 19.3399052695533 M-15.460306789623893 19.45993515863156 C-15.948801444453997 19.412810666780874, -16.4372960992841 19.365686174930193, -16.70454215284787 19.3399052695533 M-16.70454215284787 19.3399052695533 C-17.026483408987506 19.28785630395237, -17.34842466512714 19.235807338351446, -17.93853075967676 19.140403561325773 M-16.70454215284787 19.3399052695533 C-17.017417704464453 19.28932197675407, -17.33029325608103 19.238738683954843, -17.93853075967676 19.140403561325773 M-17.93853075967676 19.140403561325773 C-18.216043401002814 19.077063111882325, -18.493556042328873 19.01372266243888, -19.157201886235388 18.862249829261074 M-17.93853075967676 19.140403561325773 C-18.40536739298369 19.033851146167198, -18.872204026290618 18.927298731008626, -19.157201886235388 18.862249829261074 M-19.157201886235388 18.862249829261074 C-19.563666523917984 18.741613258373302, -19.97013116160058 18.62097668748553, -20.35554775146059 18.506587066708043 M-19.157201886235388 18.862249829261074 C-19.55862553099274 18.743109398612802, -19.96004917575009 18.623968967964533, -20.35554775146059 18.506587066708043 M-20.35554775146059 18.506587066708043 C-20.609997977842163 18.412947031287516, -20.864448204223734 18.31930699586699, -21.528644095147797 18.074876768247425 M-20.35554775146059 18.506587066708043 C-20.795416779814715 18.344711198169, -21.235285808168836 18.18283532962996, -21.528644095147797 18.074876768247425 M-21.528644095147797 18.074876768247425 C-21.85270129027908 17.931426260777958, -22.17675848541036 17.787975753308487, -22.67167041279238 17.568892924097174 M-21.528644095147797 18.074876768247425 C-21.957435091422052 17.885063713829787, -22.386226087696308 17.69525065941215, -22.67167041279238 17.568892924097174 M-22.67167041279238 17.568892924097174 C-22.96336985352473 17.416713512709517, -23.255069294257076 17.26453410132186, -23.77992976407678 16.990714730406097 M-22.67167041279238 17.568892924097174 C-23.086901437291395 17.3522671645842, -23.50213246179041 17.135641405071233, -23.77992976407678 16.990714730406097 M-23.77992976407678 16.990714730406097 C-24.00121226051283 16.856571980666274, -24.22249475694888 16.722429230926448, -24.848868073605686 16.3427180453909 M-23.77992976407678 16.990714730406097 C-24.042437353834178 16.83158108682933, -24.30494494359158 16.672447443252565, -24.848868073605686 16.3427180453909 M-24.848868073605686 16.3427180453909 C-25.240127511192526 16.06979239907839, -25.631386948779365 15.796866752765885, -25.874092844578712 15.627565626425156 M-24.848868073605686 16.3427180453909 C-25.109583233432662 16.16085443607297, -25.370298393259638 15.978990826755041, -25.874092844578712 15.627565626425156 M-25.874092844578712 15.627565626425156 C-26.08816203276992 15.456851145463009, -26.302231220961122 15.286136664500864, -26.85139120850187 14.848196188198125 M-25.874092844578712 15.627565626425156 C-26.227482693363772 15.345746626117894, -26.580872542148832 15.06392762581063, -26.85139120850187 14.848196188198125 M-26.85139120850187 14.848196188198125 C-27.040770860563615 14.676206598906663, -27.230150512625357 14.504217009615203, -27.776747236767974 14.007812326905697 M-26.85139120850187 14.848196188198125 C-27.20674428363694 14.525473927487601, -27.56209735877201 14.202751666777075, -27.776747236767974 14.007812326905697 M-27.776747236767974 14.007812326905697 C-27.957917409600512 13.82073924910829, -28.139087582433046 13.633666171310882, -28.646358442968655 13.109867360095677 M-27.776747236767974 14.007812326905697 C-28.105341161167676 13.66851212190009, -28.433935085567377 13.329211916894485, -28.646358442968655 13.109867360095677 M-28.646358442968655 13.109867360095677 C-28.819949407687503 12.905957535331204, -28.99354037240635 12.702047710566733, -29.45665140812658 12.158051136245307 M-28.646358442968655 13.109867360095677 C-28.956258403504897 12.745841232642508, -29.26615836404114 12.38181510518934, -29.45665140812658 12.158051136245307 M-29.45665140812658 12.158051136245307 C-29.633538885005134 11.9210380320087, -29.81042636188369 11.684024927772095, -30.204296464640635 11.156274872382316 M-29.45665140812658 12.158051136245307 C-29.721791548824957 11.802787502473208, -29.986931689523338 11.447523868701108, -30.204296464640635 11.156274872382316 M-30.204296464640635 11.156274872382316 C-30.386113238227676 10.87695548351282, -30.567930011814713 10.597636094643326, -30.886221378604244 10.108655082055249 M-30.204296464640635 11.156274872382316 C-30.39539149692247 10.862701586596302, -30.586486529204308 10.569128300810288, -30.886221378604244 10.108655082055249 M-30.886221378604244 10.108655082055249 C-31.04614315908354 9.824697766977984, -31.20606493956284 9.540740451900717, -31.4996239742735 9.019496659696289 M-30.886221378604244 10.108655082055249 C-31.100909758110202 9.727454124686641, -31.315598137616156 9.346253167318036, -31.4996239742735 9.019496659696289 M-31.4996239742735 9.019496659696289 C-31.6435794822588 8.720569967210373, -31.7875349902441 8.421643274724458, -32.04198364880834 7.893275190886686 M-31.4996239742735 9.019496659696289 C-31.698960045243314 8.605571043218808, -31.89829611621313 8.191645426741324, -32.04198364880834 7.893275190886686 M-32.04198364880834 7.893275190886686 C-32.15287258803228 7.619377367111761, -32.26376152725622 7.345479543336836, -32.511071729970325 6.73461856121551 M-32.04198364880834 7.893275190886686 C-32.171700680882964 7.572871613754163, -32.30141771295759 7.252468036621641, -32.511071729970325 6.73461856121551 M-32.511071729970325 6.73461856121551 C-32.65665312565479 6.2961505926593215, -32.80223452133926 5.857682624103133, -32.90496063421488 5.5482879393051325 M-32.511071729970325 6.73461856121551 C-32.64113184898718 6.34289820500258, -32.771191968004025 5.9511778487896505, -32.90496063421488 5.5482879393051325 M-32.90496063421488 5.5482879393051325 C-33.03155009653171 5.065547455271033, -33.158139558848546 4.582806971236933, -33.22203178754556 4.339158212148136 M-32.90496063421488 5.5482879393051325 C-32.983729568926066 5.247907852579142, -33.062498503637244 4.947527765853151, -33.22203178754556 4.339158212148136 M-33.22203178754556 4.339158212148136 C-33.317195856463336 3.8505108311884384, -33.41235992538111 3.361863450228741, -33.460982276581774 3.112197953150904 M-33.22203178754556 4.339158212148136 C-33.270460574427794 4.090486626935591, -33.31888936131003 3.841815041723045, -33.460982276581774 3.112197953150904 M-33.460982276581774 3.112197953150904 C-33.51065096891074 2.7269773836401385, -33.5603196612397 2.3417568141293725, -33.62083020250937 1.872449005199809 M-33.460982276581774 3.112197953150904 C-33.49351410922935 2.8598874832732952, -33.52604594187692 2.6075770133956864, -33.62083020250937 1.872449005199809 M-33.62083020250937 1.872449005199809 C-33.63877264812633 1.592980931834256, -33.65671509374329 1.313512858468703, -33.70091871591342 0.6250057626472781 M-33.62083020250937 1.872449005199809 C-33.64852622615288 1.4410610811241422, -33.676222249796396 1.0096731570484754, -33.70091871591342 0.6250057626472781 M-33.70091871591342 0.6250057626472781 C-33.70091871591342 0.2797800899223045, -33.70091871591342 -0.0654455828026691, -33.70091871591342 -0.6250057626472687 M-33.70091871591342 0.6250057626472781 C-33.70091871591342 0.2396111358324523, -33.70091871591342 -0.14578349098237353, -33.70091871591342 -0.6250057626472687 M-33.70091871591342 -0.6250057626472687 C-33.68191010008829 -0.9210802976021644, -33.66290148426316 -1.21715483255706, -33.62083020250937 -1.8724490051997822 M-33.70091871591342 -0.6250057626472687 C-33.6726700319621 -1.0650018171163584, -33.64442134801077 -1.5049978715854482, -33.62083020250937 -1.8724490051997822 M-33.62083020250937 -1.8724490051997822 C-33.564175511750115 -2.311851598994431, -33.50752082099086 -2.7512541927890792, -33.460982276581774 -3.112197953150895 M-33.62083020250937 -1.8724490051997822 C-33.581204382109696 -2.1797790432163406, -33.54157856171002 -2.487109081232899, -33.460982276581774 -3.112197953150895 M-33.460982276581774 -3.112197953150895 C-33.4070441819983 -3.389158669016698, -33.35310608741483 -3.666119384882501, -33.22203178754556 -4.339158212148126 M-33.460982276581774 -3.112197953150895 C-33.401186550050575 -3.419236371057318, -33.34139082351938 -3.7262747889637406, -33.22203178754556 -4.339158212148126 M-33.22203178754556 -4.339158212148126 C-33.121532951944076 -4.7224038287674555, -33.0210341163426 -5.105649445386786, -32.90496063421489 -5.548287939305123 M-33.22203178754556 -4.339158212148126 C-33.14348112483542 -4.638705933134479, -33.064930462125275 -4.938253654120832, -32.90496063421489 -5.548287939305123 M-32.90496063421489 -5.548287939305123 C-32.784723748509975 -5.910422281902173, -32.66448686280506 -6.272556624499224, -32.51107172997033 -6.734618561215485 M-32.90496063421489 -5.548287939305123 C-32.78902865391061 -5.8974565927289735, -32.673096673606345 -6.246625246152824, -32.51107172997033 -6.734618561215485 M-32.51107172997033 -6.734618561215485 C-32.36842396900549 -7.086961288705486, -32.22577620804064 -7.4393040161954875, -32.04198364880834 -7.893275190886676 M-32.51107172997033 -6.734618561215485 C-32.400918351213306 -7.006699536416033, -32.29076497245628 -7.2787805116165805, -32.04198364880834 -7.893275190886676 M-32.04198364880834 -7.893275190886676 C-31.889889867227723 -8.209101182624433, -31.737796085647105 -8.52492717436219, -31.499623974273504 -9.019496659696282 M-32.04198364880834 -7.893275190886676 C-31.827003579752905 -8.339685904116891, -31.61202351069747 -8.786096617347106, -31.499623974273504 -9.019496659696282 M-31.499623974273504 -9.019496659696282 C-31.363551272323438 -9.261107520863822, -31.227478570373375 -9.502718382031365, -30.886221378604247 -10.108655082055243 M-31.499623974273504 -9.019496659696282 C-31.278531802826567 -9.412068198110347, -31.057439631379633 -9.804639736524413, -30.886221378604247 -10.108655082055243 M-30.886221378604247 -10.108655082055243 C-30.61797957062302 -10.520746532125425, -30.34973776264179 -10.93283798219561, -30.20429646464064 -11.156274872382308 M-30.886221378604247 -10.108655082055243 C-30.62449635112505 -10.510735007273718, -30.362771323645852 -10.912814932492195, -30.20429646464064 -11.156274872382308 M-30.20429646464064 -11.156274872382308 C-29.98251880687553 -11.453436729427294, -29.760741149110416 -11.75059858647228, -29.456651408126586 -12.158051136245302 M-30.20429646464064 -11.156274872382308 C-29.997843993595016 -11.432902375376413, -29.791391522549393 -11.709529878370516, -29.456651408126586 -12.158051136245302 M-29.456651408126586 -12.158051136245302 C-29.151566316173405 -12.516421445087024, -28.846481224220224 -12.874791753928745, -28.646358442968662 -13.10986736009567 M-29.456651408126586 -12.158051136245302 C-29.249719680889342 -12.40112491780701, -29.042787953652102 -12.644198699368719, -28.646358442968662 -13.10986736009567 M-28.646358442968662 -13.10986736009567 C-28.364878099795714 -13.400518924387699, -28.08339775662277 -13.691170488679727, -27.776747236767996 -14.007812326905677 M-28.646358442968662 -13.10986736009567 C-28.367316070780646 -13.398001519184616, -28.08827369859263 -13.686135678273562, -27.776747236767996 -14.007812326905677 M-27.776747236767996 -14.007812326905677 C-27.52184651693873 -14.239306416351145, -27.266945797109464 -14.470800505796614, -26.851391208501887 -14.848196188198107 M-27.776747236767996 -14.007812326905677 C-27.53095904807255 -14.23103065667977, -27.285170859377107 -14.454248986453866, -26.851391208501887 -14.848196188198107 M-26.851391208501887 -14.848196188198107 C-26.582360216640122 -15.062741244992505, -26.313329224778357 -15.277286301786903, -25.87409284457872 -15.627565626425149 M-26.851391208501887 -14.848196188198107 C-26.578576009901717 -15.065759049164413, -26.305760811301546 -15.283321910130717, -25.87409284457872 -15.627565626425149 M-25.87409284457872 -15.627565626425149 C-25.5384212412339 -15.861715605928985, -25.202749637889077 -16.095865585432822, -24.84886807360571 -16.342718045390885 M-25.87409284457872 -15.627565626425149 C-25.653817234781595 -15.78122035624216, -25.43354162498447 -15.934875086059174, -24.84886807360571 -16.342718045390885 M-24.84886807360571 -16.342718045390885 C-24.43387899394934 -16.594286864225108, -24.018889914292963 -16.84585568305933, -23.77992976407679 -16.99071473040609 M-24.84886807360571 -16.342718045390885 C-24.579824759142394 -16.50581368369256, -24.31078144467908 -16.668909321994235, -23.77992976407679 -16.99071473040609 M-23.77992976407679 -16.99071473040609 C-23.460125500287493 -17.15755640998056, -23.140321236498195 -17.32439808955503, -22.671670412792388 -17.56889292409717 M-23.77992976407679 -16.99071473040609 C-23.525143928421347 -17.12363633766942, -23.2703580927659 -17.256557944932748, -22.671670412792388 -17.56889292409717 M-22.671670412792388 -17.56889292409717 C-22.23793682726763 -17.760893916159304, -21.80420324174288 -17.952894908221435, -21.528644095147804 -18.07487676824742 M-22.671670412792388 -17.56889292409717 C-22.36961422629614 -17.702604237680642, -22.06755803979989 -17.836315551264114, -21.528644095147804 -18.07487676824742 M-21.528644095147804 -18.07487676824742 C-21.123599059685652 -18.223937085492757, -20.718554024223497 -18.372997402738093, -20.35554775146062 -18.506587066708033 M-21.528644095147804 -18.07487676824742 C-21.240784571204625 -18.18081173400278, -20.952925047261445 -18.28674669975814, -20.35554775146062 -18.506587066708033 M-20.35554775146062 -18.506587066708033 C-20.114018633126506 -18.578271641217384, -19.87248951479239 -18.649956215726736, -19.157201886235413 -18.862249829261067 M-20.35554775146062 -18.506587066708033 C-19.930051285547055 -18.632872184314653, -19.504554819633487 -18.759157301921274, -19.157201886235413 -18.862249829261067 M-19.157201886235413 -18.862249829261067 C-18.780926215131057 -18.94813229576241, -18.404650544026705 -19.034014762263755, -17.938530759676766 -19.140403561325773 M-19.157201886235413 -18.862249829261067 C-18.742793764086034 -18.956835778875938, -18.328385641936656 -19.051421728490812, -17.938530759676766 -19.140403561325773 M-17.938530759676766 -19.140403561325773 C-17.517865082963432 -19.20841352562574, -17.097199406250095 -19.27642348992571, -16.704542152847882 -19.3399052695533 M-17.938530759676766 -19.140403561325773 C-17.471820497261103 -19.215857657160996, -17.005110234845436 -19.291311752996222, -16.704542152847882 -19.3399052695533 M-16.704542152847882 -19.3399052695533 C-16.25748134715795 -19.383032687808925, -15.810420541468014 -19.42616010606455, -15.460306789623903 -19.45993515863156 M-16.704542152847882 -19.3399052695533 C-16.44262133488829 -19.36517245585599, -16.1807005169287 -19.390439642158682, -15.460306789623903 -19.45993515863156 M-15.460306789623903 -19.45993515863156 C-15.133857036302961 -19.470403766824663, -14.807407282982018 -19.480872375017768, -14.210937500000005 -19.5 M-15.460306789623903 -19.45993515863156 C-15.05893036034739 -19.47280651948663, -14.657553931070876 -19.485677880341704, -14.210937500000005 -19.5 M-14.210937500000005 -19.5 C-14.210937500000004 -19.5, -14.210937500000002 -19.5, -14.2109375 -19.5 M-14.210937500000005 -19.5 C-14.210937500000004 -19.5, -14.210937500000002 -19.5, -14.2109375 -19.5" stroke="#9370DB" stroke-width="1.3" fill="none" stroke-dasharray="0 0" style="fill:#1f6feb !important"/></g><g class="label" style="color:#fff !important" transform="translate(-21.3359375, -12)"><rect/><foreignObject width="42.671875" height="24"><div style="color: rgb(255, 255, 255) !important; display: table-cell; white-space: nowrap; line-height: 1.5; max-width: 703px; text-align: center;" xmlns="http://www.w3.org/1999/xhtml"><span style="color:#fff !important" class="nodeLabel"><p>Client</p></span></div></foreignObject></g></g><g class="node default" id="my-svg-flowchart-TS-1" data-look="classic" transform="translate(261.30859375, 148)"><rect class="basic label-container" style="" x="-79.6484375" y="-27" width="159.296875" height="54"/><g class="label" style="" transform="translate(-49.6484375, -12)"><rect/><foreignObject width="99.296875" height="24"><div xmlns="http://www.w3.org/1999/xhtml" style="display: table-cell; white-space: nowrap; line-height: 1.5; max-width: 703px; text-align: center;"><span class="nodeLabel"><p>Tweet Service</p></span></div></foreignObject></g></g><g class="node default" id="my-svg-flowchart-DB-3" data-look="classic" transform="translate(374.68359375, 468.0190658569336)"><path d="M0,10.741783702858772 a47.0859375,10.741783702858772 0,0,0 94.171875,0 a47.0859375,10.741783702858772 0,0,0 -94.171875,0 l0,73.74178370285877 a47.0859375,10.741783702858772 0,0,0 94.171875,0 l0,-73.74178370285877" class="basic label-container outer-path" style="fill:#3fb950 !important" transform="translate(-47.0859375, -47.61267555428816)"/><g class="label" style="color:#fff !important" transform="translate(-39.5859375, -14)"><rect/><foreignObject width="79.171875" height="48"><div style="color: rgb(255, 255, 255) !important; display: table-cell; white-space: nowrap; line-height: 1.5; max-width: 703px; text-align: center;" xmlns="http://www.w3.org/1999/xhtml"><span style="color:#fff !important" class="nodeLabel"><p>PostgreSQL<br />Tweets</p></span></div></foreignObject></g></g><g class="node default" id="my-svg-flowchart-K-5" data-look="classic" transform="translate(311.98046875, 297.7050476074219)"><rect class="basic label-container" style="fill:#f0883e !important" x="-50.0078125" y="-27" width="100.015625" height="54"/><g class="label" style="color:#fff !important" transform="translate(-20.0078125, -12)"><rect/><foreignObject width="40.015625" height="24"><div style="color: rgb(255, 255, 255) !important; display: table-cell; white-space: nowrap; line-height: 1.5; max-width: 703px; text-align: center;" xmlns="http://www.w3.org/1999/xhtml"><span style="color:#fff !important" class="nodeLabel"><p>Kafka</p></span></div></foreignObject></g></g><g class="node default" id="my-svg-flowchart-FS-7" data-look="classic" transform="translate(156.26953125, 468.0190658569336)"><rect class="basic label-container" style="" x="-85.8046875" y="-27" width="171.609375" height="54"/><g class="label" style="" transform="translate(-55.8046875, -12)"><rect/><foreignObject width="111.609375" height="24"><div xmlns="http://www.w3.org/1999/xhtml" style="display: table-cell; white-space: nowrap; line-height: 1.5; max-width: 703px; text-align: center;"><span class="nodeLabel"><p>Fan-out Service</p></span></div></foreignObject></g></g><g class="node default" id="my-svg-flowchart-RS-9" data-look="classic" transform="translate(133.9765625, 652.6564292907715)"><path d="M0,13.018930090457077 a67.9140625,13.018930090457077 0,0,0 135.828125,0 a67.9140625,13.018930090457077 0,0,0 -135.828125,0 l0,100.01893009045708 a67.9140625,13.018930090457077 0,0,0 135.828125,0 l0,-100.01893009045708" class="basic label-container outer-path" style="fill:#a371f7 !important" transform="translate(-67.9140625, -63.028395135685614)"/><g class="label" style="color:#fff !important" transform="translate(-60.4140625, -26)"><rect/><foreignObject width="120.828125" height="72"><div style="color: rgb(255, 255, 255) !important; display: table-cell; white-space: nowrap; line-height: 1.5; max-width: 703px; text-align: center;" xmlns="http://www.w3.org/1999/xhtml"><span style="color:#fff !important" class="nodeLabel"><p>Redis<br />Sorted Sets<br />timeline:{userId}</p></span></div></foreignObject></g></g><g class="node default" id="my-svg-flowchart-X-11" data-look="classic" transform="translate(403.94140625, 652.6564292907715)"><rect class="basic label-container" style="" x="-130" y="-39" width="260" height="78"/><g class="label" style="" transform="translate(-100, -24)"><rect/><foreignObject width="200" height="48"><div xmlns="http://www.w3.org/1999/xhtml" style="display: table; white-space: break-spaces; line-height: 1.5; max-width: 703px; text-align: center; width: 200px;"><span class="nodeLabel"><p>Skip — fetched at read time</p></span></div></foreignObject></g></g><g class="node default" id="my-svg-flowchart-TLS-13" data-look="classic" transform="translate(689.265625, 148)"><rect class="basic label-container" style="" x="-89.2265625" y="-27" width="178.453125" height="54"/><g class="label" style="" transform="translate(-59.2265625, -12)"><rect/><foreignObject width="118.453125" height="24"><div xmlns="http://www.w3.org/1999/xhtml" style="display: table-cell; white-space: nowrap; line-height: 1.5; max-width: 703px; text-align: center;"><span class="nodeLabel"><p>Timeline Service</p></span></div></foreignObject></g></g><g class="node default" id="my-svg-flowchart-TC-17" data-look="classic" transform="translate(602.328125, 297.7050476074219)"><path d="M0,11.470031118928427 a52.984375,11.470031118928427 0,0,0 105.96875,0 a52.984375,11.470031118928427 0,0,0 -105.96875,0 l0,74.47003111892843 a52.984375,11.470031118928427 0,0,0 105.96875,0 l0,-74.47003111892843" class="basic label-container outer-path" style="" transform="translate(-52.984375, -48.70504667839264)"/><g class="label" style="" transform="translate(-45.484375, -14)"><rect/><foreignObject width="90.96875" height="48"><div xmlns="http://www.w3.org/1999/xhtml" style="display: table-cell; white-space: nowrap; line-height: 1.5; max-width: 703px; text-align: center;"><span class="nodeLabel"><p>Redis<br />Tweet Cache</p></span></div></foreignObject></g></g><g class="node default" id="my-svg-flowchart-CTS-21" data-look="classic" transform="translate(820.0625, 297.7050476074219)"><rect class="basic label-container" style="" x="-114.75" y="-27" width="229.5" height="54"/><g class="label" style="" transform="translate(-84.75, -12)"><rect/><foreignObject width="169.5" height="24"><div xmlns="http://www.w3.org/1999/xhtml" style="display: table-cell; white-space: nowrap; line-height: 1.5; max-width: 703px; text-align: center;"><span class="nodeLabel"><p>Celebrity Tweet Service</p></span></div></foreignObject></g></g><g class="node default" id="my-svg-flowchart-ML-23" data-look="classic" transform="translate(1077.69140625, 297.7050476074219)"><rect class="basic label-container" style="" x="-86.1875" y="-27" width="172.375" height="54"/><g class="label" style="" transform="translate(-56.1875, -12)"><rect/><foreignObject width="112.375" height="24"><div xmlns="http://www.w3.org/1999/xhtml" style="display: table-cell; white-space: nowrap; line-height: 1.5; max-width: 703px; text-align: center;"><span class="nodeLabel"><p>Ranking Service</p></span></div></foreignObject></g></g></g></g></g><defs><filter id="my-svg-drop-shadow" height="130%" width="130%"><feDropShadow dx="4" dy="4" stdDeviation="0" flood-opacity="0.06" flood-color="#000000"/></filter></defs><defs><filter id="my-svg-drop-shadow-small" height="150%" width="150%"><feDropShadow dx="2" dy="2" stdDeviation="0" flood-opacity="0.06" flood-color="#000000"/></filter></defs></svg>